<?xml version="1.0" encoding="utf-8"?>
<!-- Generator: Adobe Illustrator 27.5.0, SVG Export Plug-In . SVG Version: 6.00 Build 0)  -->
<svg version="1.1" xmlns="http://www.w3.org/2000/svg" xmlns:xlink="http://www.w3.org/1999/xlink" x="0px" y="0px"
	 viewBox="0 0 750 500" style="enable-background:new 0 0 750 500;" xml:space="preserve">
<g id="BACKGROUND">
	<rect style="fill:#FFFFFF;" width="750" height="500"/>
</g>
<g id="OBJECTS">
	<g>
		<path style="fill:#EBE9F4;" d="M47.109,436.002c0,0,664.83,0,660.37-0.616c6.67-19.026,13.41-38.44,13.99-58.623
			c0.58-20.182-6-41.619-21.71-54.094c-14.94-11.859-36.33-14.529-48.8-29.003c-12.74-14.777-11.87-37.132-6.35-55.92
			c5.52-18.777,14.95-36.549,17.23-56.007c4.41-37.576-19.28-73.768-49.79-95.745c-35.17-25.339-80.37-36.062-123.04-29.198
			c-42.67,6.864-82.32,31.263-107.94,66.395c-11.36,15.588-22.02,34.625-40.67,39.1c-13.33,3.2-27.38-2.335-38.4-10.561
			c-11.02-8.216-19.86-19.004-29.94-28.365c-23.18-21.523-53.79-35.489-85.28-35.835c-31.49-0.346-63.44,13.794-82.35,39.219
			s-23.1,61.996-8.04,89.918c5.25,9.729,12.56,18.269,17.12,28.344c4.56,10.075,5.86,22.788-0.78,31.609
			c-9.31,12.378-27.78,10.691-42.55,15.048c-25.31,7.47-40.73,35.176-41.63,61.779C27.649,380.071,38.339,405.636,47.109,436.002z"
			/>
		<g>
			<g>
				<g>
					<g>
						<path style="fill:#79DEE8;" d="M607.71,86.827v153.765c0,5.647-4.892,10.217-10.935,10.217H356.722
							c-6.043,0-10.935-4.571-10.935-10.217V86.827c0-5.637,4.892-10.208,10.935-10.208h240.053
							C602.818,76.619,607.71,81.19,607.71,86.827z"/>
						<path style="fill:#6193C9;" d="M607.71,86.827v3.599H345.787v-3.599c0-5.637,4.892-10.208,10.935-10.208h240.053
							C602.818,76.619,607.71,81.19,607.71,86.827z"/>
					</g>
					<g>
						<path style="fill:#D1132F;" d="M592.528,84.654c0,1.843-1.569,3.337-3.504,3.337c-1.935,0-3.504-1.494-3.504-3.337
							c0-1.843,1.569-3.337,3.504-3.337C590.959,81.317,592.528,82.811,592.528,84.654z"/>
						<path style="fill:#F9E26B;" d="M580.308,84.654c0,1.843-1.569,3.337-3.504,3.337c-1.935,0-3.504-1.494-3.504-3.337
							c0-1.843,1.569-3.337,3.504-3.337C578.739,81.317,580.308,82.811,580.308,84.654z"/>
						<path style="fill:#A4C9EA;" d="M567.724,84.654c0,1.843-1.569,3.337-3.504,3.337c-1.935,0-3.504-1.494-3.504-3.337
							c0-1.843,1.569-3.337,3.504-3.337C566.155,81.317,567.724,82.811,567.724,84.654z"/>
					</g>
				</g>
				<g>
					<g>
						<g>
							<g>
								<rect x="361.357" y="199.539" style="fill:#D2F9F3;" width="7.276" height="31.187"/>
								<rect x="380.947" y="187.734" style="fill:#D2F9F3;" width="7.276" height="42.992"/>
								<rect x="400.314" y="165.941" style="fill:#D2F9F3;" width="7.276" height="64.785"/>
								<rect x="443.52" y="154.022" style="fill:#D2F9F3;" width="7.276" height="76.704"/>
								<rect x="468.462" y="138.184" style="fill:#D2F9F3;" width="7.276" height="92.278"/>
								<rect x="490.793" y="126.013" style="fill:#D2F9F3;" width="7.276" height="104.767"/>
								<rect x="424.148" y="175.149" style="fill:#D2F9F3;" width="7.276" height="55.577"/>
							</g>
							<g>
								
									<rect x="513.103" y="104.348" transform="matrix(-1 -1.224647e-16 1.224647e-16 -1 1027.7025 335.1289)" style="fill:#D2F9F3;" width="1.496" height="126.432"/>
								
									<rect x="433.283" y="149.464" transform="matrix(-1.836970e-16 1 -1 -1.836970e-16 664.0636 -203.9564)" style="fill:#D2F9F3;" width="1.454" height="161.178"/>
							</g>
						</g>
						<g>
							<polygon style="fill:#D2F9F3;" points="485.228,100.93 496.358,98.277 490.574,110.699 							"/>
							<polyline style="fill:none;stroke:#D2F9F3;stroke-linecap:round;stroke-linejoin:round;stroke-miterlimit:10;" points="
								489.138,104.488 426.115,149.152 403.952,140.072 364.996,169.323 							"/>
						</g>
						<g>
							<g>
								<rect x="516.885" y="227.825" style="fill:#D2F9F3;" width="3.66" height="1.502"/>
								<rect x="516.885" y="203.13" style="fill:#D2F9F3;" width="3.66" height="1.502"/>
								<rect x="516.885" y="178.434" style="fill:#D2F9F3;" width="3.66" height="1.502"/>
								<rect x="516.885" y="153.739" style="fill:#D2F9F3;" width="3.66" height="1.502"/>
								<rect x="516.885" y="129.044" style="fill:#D2F9F3;" width="3.66" height="1.502"/>
								<rect x="516.885" y="104.348" style="fill:#D2F9F3;" width="3.66" height="1.502"/>
							</g>
							<g>
								<rect x="362.21" y="233.814" style="fill:#D2F9F3;" width="5.571" height="2.171"/>
								<rect x="381.8" y="233.814" style="fill:#D2F9F3;" width="5.571" height="2.171"/>
								<rect x="401.167" y="233.814" style="fill:#D2F9F3;" width="5.571" height="2.171"/>
								<rect x="423.329" y="233.814" style="fill:#D2F9F3;" width="5.571" height="2.171"/>
								<rect x="444.373" y="233.814" style="fill:#D2F9F3;" width="5.571" height="2.171"/>
								<rect x="467.643" y="233.814" style="fill:#D2F9F3;" width="5.571" height="2.171"/>
								<rect x="491.873" y="233.814" style="fill:#D2F9F3;" width="5.571" height="2.171"/>
							</g>
						</g>
					</g>
					<g>
						<g>
							<path style="fill:#B9E6ED;" d="M586.029,142.457l-23.864-7.009l3.301,24.64c-1.078,0.151-2.185,0.227-3.301,0.227
								c-7.491,0-14.207-3.311-18.756-8.551c-3.812-4.36-6.11-10.073-6.11-16.316c0-13.724,11.133-24.857,24.867-24.857
								c4.966,0,9.591,1.457,13.469,3.963c6.858,4.427,11.398,12.135,11.398,20.894
								C587.031,137.879,586.681,140.234,586.029,142.457z"/>
							<path style="fill:#87BBD8;" d="M565.466,160.088c-1.078,0.151-2.185,0.227-3.301,0.227c-2.507,0-4.919-0.369-7.198-1.059
								c2.696-8.976,7.198-23.807,7.198-23.807L565.466,160.088z"/>
							<path style="fill:#D2F9F3;" d="M588.329,145.59c-2.724,9.298-10.736,16.335-20.563,17.631l-3.301-24.64L588.329,145.59z"/>
						</g>
						<g>
							<g>
								<rect x="545.647" y="175.496" style="fill:#D2F9F3;" width="42.782" height="2.9"/>
								<rect x="535.9" y="182.213" style="fill:#D2F9F3;" width="52.529" height="2.9"/>
								<rect x="535.9" y="188.929" style="fill:#D2F9F3;" width="52.529" height="2.9"/>
								<rect x="535.9" y="195.646" style="fill:#D2F9F3;" width="52.529" height="2.9"/>
							</g>
							<g>
								<rect x="545.647" y="203.335" style="fill:#D2F9F3;" width="42.782" height="2.9"/>
								<rect x="535.9" y="210.052" style="fill:#D2F9F3;" width="52.529" height="2.9"/>
								<rect x="535.9" y="216.769" style="fill:#D2F9F3;" width="52.529" height="2.9"/>
								<rect x="535.9" y="223.486" style="fill:#D2F9F3;" width="52.529" height="2.9"/>
							</g>
						</g>
					</g>
				</g>
			</g>
			<g>
				<g>
					<g>
						<path style="fill:#40337C;" d="M674.635,297.517c-14.124,0.434-19.721,25.202-21.159,40.493
							c-2.464,26.203,3.749,51.872,10.614,76.036c-0.3,0.241-0.509,0.679-0.374,1.201c0.414,1.743,0.893,3.453,1.437,5.13
							c0.354,1.172,1.699,1.119,1.714-0.316c0.302-29.073,10.082-54.964,16.268-82.199
							C686.18,324.451,691.746,296.991,674.635,297.517z"/>
						<g>
							<path style="fill:none;stroke:#D7CEEA;stroke-linecap:round;stroke-linejoin:round;stroke-miterlimit:10;" d="
								M672.981,312.088c-6.475,26.385-9.247,54.121-8.158,81.635"/>
							<path style="fill:none;stroke:#D7CEEA;stroke-linecap:round;stroke-linejoin:round;stroke-miterlimit:10;" d="
								M670.442,322.929c-1.786-2.63-3.362-5.473-4.698-8.476"/>
							<path style="fill:none;stroke:#D7CEEA;stroke-linecap:round;stroke-linejoin:round;stroke-miterlimit:10;" d="
								M669.595,329.473c2.432-1.185,5.069-1.737,7.685-1.61"/>
							<path style="fill:none;stroke:#D7CEEA;stroke-linecap:round;stroke-linejoin:round;stroke-miterlimit:10;" d="
								M666.666,342.538c-2.23-1.48-4.461-2.96-6.691-4.439"/>
							<path style="fill:none;stroke:#D7CEEA;stroke-linecap:round;stroke-linejoin:round;stroke-miterlimit:10;" d="
								M666.573,349.663c2.715-0.821,5.501-1.296,8.296-1.414"/>
							<path style="fill:none;stroke:#D7CEEA;stroke-linecap:round;stroke-linejoin:round;stroke-miterlimit:10;" d="
								M664.739,363.815c-1.826-1.451-3.652-2.902-5.479-4.354"/>
							<path style="fill:none;stroke:#D7CEEA;stroke-linecap:round;stroke-linejoin:round;stroke-miterlimit:10;" d="
								M665.356,367.236c2.066-0.988,4.194-1.783,6.359-2.375"/>
						</g>
					</g>
					<g>
						<path style="fill:#A194C9;enable-background:new    ;" d="M711.865,342.872c-10.861-5.974-25.515,4.051-33.599,15.066
							c-8.564,11.669-13.423,28.431-13.763,45.816c-0.107-0.347-0.203-0.703-0.318-1.044c-1.145-19.917-5.709-38.992-13.532-55.066
							c-5.699-11.71-16.777-31.522-27.696-25.273c-11.263,6.445-5.136,23.961,1.44,31.976c7.11,8.665,14.548,16.749,21.81,25.102
							c7.231,8.317,14.597,16.021,17.803,29.161c0.029,0.638,0.065,1.274,0.087,1.913c0.012,0.346,0.328,0.357,0.355,0.04
							c0.075,0.368,0.139,0.751,0.211,1.124c0.049,0.819,0.091,1.638,0.161,2.456c0.048,0.565,0.606,0.607,0.589,0
							c-0.005-0.195-0.003-0.391-0.008-0.586c0.386,0.096,0.827-0.252,0.773-0.977c-0.027-0.365-0.078-0.712-0.115-1.07
							c0.217,0.156,0.49,0.11,0.611-0.292c7.696-25.715,23.778-34.75,39.553-44.938c3.962-2.559,9.308-5.327,10.145-12.853
							C716.96,348.161,714.941,344.564,711.865,342.872z"/>
						<g>
							<path style="fill:none;stroke:#D7CEEA;stroke-linecap:round;stroke-linejoin:round;stroke-miterlimit:10;" d="
								M706.874,352.064c-18.492,11.146-34.238,32.405-41.727,55.879c-7.699-26.411-23.154-56.367-41.459-76.65"/>
							<g>
								<path style="fill:none;stroke:#D7CEEA;stroke-linecap:round;stroke-linejoin:round;stroke-miterlimit:10;" d="
									M696.69,348.518c0.138,3.611,0.099,7.232-0.117,10.837"/>
								<path style="fill:none;stroke:#D7CEEA;stroke-linecap:round;stroke-linejoin:round;stroke-miterlimit:10;" d="
									M686.444,369.496c0.106-3.06-0.012-6.132-0.352-9.166"/>
								<path style="fill:none;stroke:#D7CEEA;stroke-linecap:round;stroke-linejoin:round;stroke-miterlimit:10;" d="
									M690.655,365.145c2.655,0.005,5.306,0.81,7.654,2.323"/>
								<path style="fill:none;stroke:#D7CEEA;stroke-linecap:round;stroke-linejoin:round;stroke-miterlimit:10;" d="
									M678.605,379.499c-0.308-2.5-0.615-5-0.923-7.5"/>
								<path style="fill:none;stroke:#D7CEEA;stroke-linecap:round;stroke-linejoin:round;stroke-miterlimit:10;" d="
									M683.145,373.689c1.876,0.688,3.658,1.754,5.252,3.144"/>
								<path style="fill:none;stroke:#D7CEEA;stroke-linecap:round;stroke-linejoin:round;stroke-miterlimit:10;" d="
									M632.766,329.237c-0.738,3.244-1.408,6.512-2.009,9.798"/>
								<path style="fill:none;stroke:#D7CEEA;stroke-linecap:round;stroke-linejoin:round;stroke-miterlimit:10;" d="
									M633.815,344.406c-2.745,0.877-5.381,2.265-7.788,4.102"/>
								<path style="fill:none;stroke:#D7CEEA;stroke-linecap:round;stroke-linejoin:round;stroke-miterlimit:10;" d="
									M645.453,344.564c-1.709,2.942-3.133,6.131-4.232,9.48"/>
								<path style="fill:none;stroke:#D7CEEA;stroke-linecap:round;stroke-linejoin:round;stroke-miterlimit:10;" d="
									M640.043,368.906c2.471-1.492,5.273-2.154,8.022-1.896"/>
								<path style="fill:none;stroke:#D7CEEA;stroke-linecap:round;stroke-linejoin:round;stroke-miterlimit:10;" d="
									M657.121,369.146c-1.738,1.758-3.189,3.94-4.24,6.38"/>
								<path style="fill:none;stroke:#D7CEEA;stroke-linecap:round;stroke-linejoin:round;stroke-miterlimit:10;" d="
									M651.919,383.994c1.219-0.543,2.515-0.83,3.812-0.844"/>
							</g>
						</g>
					</g>
				</g>
				<g>
					<path style="fill:#FDC15E;" d="M694.292,388.343c0,1.862-0.033,3.664-0.083,5.384c-0.099,3.805-0.331,7.307-0.679,10.505
						c-2.915,27.405-13.865,33.7-26.951,33.7c-13.086,0-24.035-6.295-26.951-33.7c-0.348-3.198-0.58-6.7-0.679-10.505
						c-0.05-1.72-0.083-3.522-0.083-5.384H694.292z"/>
					<path style="fill:#F9EA93;" d="M694.209,393.727c-0.099,3.805-0.331,7.307-0.679,10.505h-53.901
						c-0.348-3.198-0.58-6.7-0.679-10.505H694.209z"/>
				</g>
			</g>
			<g>
				<g>
					<g>
						<g>
							<path style="fill:#40337C;" d="M108.6,405.648c-7.011-33.254,4.565-68.594,31.212-95.286
								c-15.401,30.586-21.308,63.036-17.743,95.733"/>
							<path style="fill:none;stroke:#D7CEEA;stroke-linecap:round;stroke-linejoin:round;stroke-miterlimit:10;" d="
								M127.844,329.559c0,0-16.736,29.273-14.601,78.355"/>
						</g>
						<g>
							<path style="fill:#40337C;" d="M104.114,407.913c-0.654-34.98-13.569-69.778-37.012-99.723
								c12.593,33.044,21.73,65.611,28,99.712"/>
							<path style="fill:none;stroke:#D7CEEA;stroke-linecap:round;stroke-linejoin:round;stroke-miterlimit:10;" d="M74.757,323.34
								c0,0,23.055,47.826,25.062,84.573"/>
						</g>
					</g>
					<g>
						<path style="fill:#A194C9;" d="M92.894,416.948c0,0-24.012-70.93-54.181-92.225c0,0,41.867,9.917,61.569,78.705
							c0,0-13.22-67.937,8.804-108.831c0,0-2.964,74.346,3.658,107.89c0,0,5.235-44.782,54.575-76.632
							c0,0-40.877,42.948-43.045,91.093H92.894z"/>
						<path style="fill:none;stroke:#D7CEEA;stroke-linecap:round;stroke-linejoin:round;stroke-miterlimit:10;" d="M54.479,336.643
							c0,0,31.544,30.864,40.556,72.813"/>
						<path style="fill:none;stroke:#D7CEEA;stroke-linecap:round;stroke-linejoin:round;stroke-miterlimit:10;" d="
							M105.109,317.979c0,0-7.292,62.456,3.177,91.477"/>
						<path style="fill:none;stroke:#D7CEEA;stroke-linecap:round;stroke-linejoin:round;stroke-miterlimit:10;" d="
							M152.312,341.115c0,0-32.181,34.066-34.661,68.341"/>
					</g>
				</g>
				<g>
					<polygon style="fill:#FDC15E;" points="143.358,402.487 141.92,406.962 138.77,416.713 131.76,438.477 87.329,438.477 
						80.319,416.713 77.169,406.962 75.731,402.487 					"/>
					<polygon style="fill:#F9EA93;" points="141.92,406.962 138.77,416.713 80.319,416.713 77.169,406.962 					"/>
				</g>
			</g>
			<g>
				<g>
					<ellipse style="fill:#F2819F;" cx="162.052" cy="175.346" rx="38.482" ry="23.591"/>
					<polygon style="fill:#F2819F;" points="175.999,184.004 195.613,216.89 162.297,192.675 					"/>
				</g>
				<g>
					<circle style="fill:#FFFFFF;" cx="143.312" cy="176.583" r="3.071"/>
					<circle style="fill:#FFFFFF;" cx="162.519" cy="176.583" r="3.071"/>
					<path style="fill:#FFFFFF;" d="M183.862,176.583c0,1.696-1.375,3.071-3.071,3.071c-1.696,0-3.071-1.375-3.071-3.071
						c0-1.696,1.375-3.071,3.071-3.071C182.487,173.513,183.862,174.887,183.862,176.583z"/>
				</g>
			</g>
			<g>
				<g>
					<ellipse style="fill:#FFE3A6;" cx="260.863" cy="134.182" rx="38.482" ry="23.591"/>
					<polygon style="fill:#FFE3A6;" points="274.81,142.84 293.393,188.929 261.109,151.51 					"/>
				</g>
				<g>
					<path style="fill:#FFFFFF;" d="M244.788,135.255c0,1.74-1.411,3.151-3.151,3.151c-1.74,0-3.151-1.411-3.151-3.151
						c0-1.74,1.411-3.151,3.151-3.151C243.377,132.105,244.788,133.515,244.788,135.255z"/>
					<path style="fill:#FFFFFF;" d="M264.493,135.255c0,1.74-1.411,3.151-3.151,3.151c-1.74,0-3.151-1.411-3.151-3.151
						c0-1.74,1.411-3.151,3.151-3.151C263.082,132.105,264.493,133.515,264.493,135.255z"/>
					<path style="fill:#FFFFFF;" d="M283.24,135.255c0,1.74-1.411,3.151-3.151,3.151c-1.74,0-3.151-1.411-3.151-3.151
						c0-1.74,1.411-3.151,3.151-3.151C281.829,132.105,283.24,133.515,283.24,135.255z"/>
				</g>
			</g>
		</g>
		<g>
			<g>
				<g>
					<rect x="386.355" y="324.477" style="fill:#6A9ABF;" width="82.267" height="3.158"/>
					<g>
						<polygon style="fill:#A2D1DD;" points="481.665,286.907 481.095,289.167 471.995,325.337 412.725,325.337 422.395,286.907 
													"/>
						<polygon style="fill:#87BBD8;" points="481.095,289.167 471.995,325.337 415.355,325.337 424.455,289.167 						"/>
						<path style="fill:#A2D1DD;" d="M454.291,308.984c0,1.746-2.137,3.162-4.773,3.162c-2.636,0-4.773-1.416-4.773-3.162
							c0-1.746,2.137-3.162,4.773-3.162C452.154,305.822,454.291,307.238,454.291,308.984z"/>
					</g>
				</g>
				<g>
					<rect x="422.352" y="331.946" style="fill:#7868AD;" width="5.87" height="107.18"/>
					<g>
						<g>
							<g>
								<g>
									<polygon style="fill:#FAC0CD;" points="307.374,368.356 300.794,368.846 297.904,347.566 296.024,333.806 302.244,332.796 
										304.374,347.566 									"/>
									<polygon style="fill:#DB8CA8;" points="304.374,347.566 297.904,347.566 296.024,333.806 302.244,332.796 									"/>
								</g>
								<g>
									<path style="fill:#DB8CA8;" d="M285.364,341.686l-5.3-33.71c-1.4-8.89,5.48-16.93,14.48-16.93h28.47
										c7.22,0,13.36,5.25,14.48,12.38l6.01,38.26H285.364L285.364,341.686z"/>
									<path style="fill:#FAC0CD;" d="M290.104,341.686l-5.3-33.71c-1.4-8.89,5.48-16.93,14.48-16.93h28.47
										c7.22,0,13.36,5.25,14.48,12.38l6.01,38.26H290.104L290.104,341.686z"/>
								</g>
							</g>
							<g>
								<g>
									<polygon style="fill:#DB8CA8;" points="316.874,439.086 327.324,372.046 333.704,372.756 323.454,439.096 									"/>
									<polygon style="fill:#DB8CA8;" points="393.254,438.816 383.314,371.856 376.934,372.606 386.674,438.876 									"/>
								</g>
								<path style="fill:#FAC0CD;" d="M291.244,369.866v-0.02c0-2.8,2.27-5.06,5.06-5.06h87.94c2.8,0,5.06,2.27,5.06,5.06v0.02
									c0,2.8-2.27,5.06-5.06,5.06h-87.94C293.514,374.926,291.244,372.666,291.244,369.866z"/>
								<g>
									<polygon style="fill:#FAC0CD;" points="296.534,439.486 307.084,372.036 313.464,372.736 303.114,439.496 									"/>
									<polygon style="fill:#FAC0CD;" points="364.074,439.236 354.224,371.856 347.844,372.606 357.494,439.286 									"/>
								</g>
							</g>
						</g>
						<g>
							<g>
								<g>
									<g>
										<g>
											<path style="fill:#1186AD;" d="M439.914,438.516h-37.31c0,0-0.32-0.78-0.35-2.19c-0.07-2.03,0.43-5.37,3.25-9.58
												l15.93-0.07c0,0,12.23,0.35,17.37,9.44C439.224,436.856,439.594,437.656,439.914,438.516z"/>
											<path style="fill:#89C0CC;" d="M439.914,438.516h-37.31c0,0-0.32-0.78-0.35-2.19l36.55-0.21
												C439.224,436.856,439.594,437.656,439.914,438.516z"/>
										</g>
										<g>
											<path style="fill:none;stroke:#89C0CC;stroke-width:2;stroke-linecap:round;stroke-miterlimit:10;" d="M419.864,429.546
												c1.07-1.19,2.38-2.17,3.85-2.86"/>
											<path style="fill:none;stroke:#89C0CC;stroke-width:2;stroke-linecap:round;stroke-miterlimit:10;" d="M422.944,430.596
												c1.07-1.19,2.38-2.17,3.85-2.86"/>
											<path style="fill:none;stroke:#89C0CC;stroke-width:2;stroke-linecap:round;stroke-miterlimit:10;" d="M425.794,431.586
												c1.07-1.19,2.38-2.17,3.85-2.86"/>
										</g>
									</g>
									<path style="fill:#22355C;" d="M351.444,330.726c0,0,44.15,5.71,50.26,15.07c6.11,9.36,20.35,80.99,20.35,80.99
										l-17.33,1.35l-19.08-59.82l-53.67-17.58L351.444,330.726z"/>
								</g>
								<g>
									<g>
										<g>
											<path style="fill:#149FBE;" d="M415.524,439.006h-37.31c0,0-0.32-0.78-0.35-2.19c-0.07-2.03,0.43-5.37,3.25-9.58
												l15.93-0.07c0,0,12.23,0.35,17.37,9.44C414.844,437.346,415.214,438.146,415.524,439.006z"/>
											<path style="fill:#A8E1E6;" d="M415.524,439.006h-37.31c0,0-0.32-0.78-0.35-2.19l36.55-0.21
												C414.844,437.346,415.214,438.146,415.524,439.006z"/>
										</g>
										<g>
											<path style="fill:none;stroke:#A8E1E6;stroke-width:2;stroke-linecap:round;stroke-miterlimit:10;" d="M395.484,430.036
												c1.07-1.19,2.38-2.17,3.85-2.86"/>
											<path style="fill:none;stroke:#A8E1E6;stroke-width:2;stroke-linecap:round;stroke-miterlimit:10;" d="M398.554,431.086
												c1.07-1.19,2.38-2.17,3.85-2.86"/>
											<path style="fill:none;stroke:#A8E1E6;stroke-width:2;stroke-linecap:round;stroke-miterlimit:10;" d="M401.414,432.076
												c1.07-1.19,2.38-2.17,3.85-2.86"/>
										</g>
									</g>
									<path style="fill:#2E4A78;" d="M303.784,314.516c0,0-2.2,46.32,11.41,48.81c13.61,2.49,45.93,5.86,45.93,5.86l17.93,60.7
										l18.48-2.67c0,0-10.14-70.25-15.07-77.49c-3.94-5.77-32.77-8.04-32.77-8.04s8.81-5.25,6.55-16.73
										C353.994,313.466,303.784,314.516,303.784,314.516z"/>
								</g>
							</g>
							<g>
								<path style="fill:#15A9BF;" d="M338.244,273.686l2.5-12.75c0,0,9.58,1.46,14.49,8.8s10.88,29.81,10.88,29.81l-20.59,3.3
									L338.244,273.686z"/>
								<g>
									<path style="fill:#149FBE;" d="M295.554,272.816c1.76-5.6,10.09-14.13,29.03-14.13c18.94,0,23.23,4.48,26.12,10.67
										c1.65,3.54,6.67,62.14,6.67,62.14c-14.24,4.78-36.05,7.4-53.72,4.07C303.654,335.566,293.494,279.406,295.554,272.816z"/>
									
										<rect x="339.86" y="283.741" transform="matrix(0.9982 -0.0603 0.0603 0.9982 -16.5684 21.3656)" style="fill:#58B8C4;" width="11.74" height="2.94"/>
								</g>
								<g>
									<g>
										<path style="fill:#F4AC96;" d="M331.444,269.186c-1.9,0.48-19.37-8.19-19.37-8.19c1.11-2.65,2.44-8.11,2.12-12.72
											c-0.09-1.27-0.26-2.64-0.52-4.14l16.81,2.21c0.2,4.07,1.45,8.46,1.66,9.18c1.14,3.9,2.44,6.62,2.44,6.62
											S333.684,268.626,331.444,269.186z"/>
										<path style="fill:#E0776E;" d="M332.144,255.526c-8.15,1.11-15.07-4.46-17.96-7.25c-0.09-1.27-0.26-2.64-0.52-4.14
											l16.81,2.21c0.13,2.53,0.59,5.03,1.14,7.26C331.794,254.276,331.974,254.906,332.144,255.526z"/>
									</g>
									<g>
										<g>
											<path style="fill:#E0776E;" d="M339.711,230.498c3.049-0.847,5.977,0.11,6.54,2.138c0.563,2.027-1.452,4.357-4.501,5.204
												c-3.049,0.847-5.977-0.11-6.54-2.138C334.647,233.674,336.662,231.344,339.711,230.498z"/>
											<g>
												<path style="fill:#F4AC96;" d="M331.214,251.686c-10.51,1.7-22.28-6.96-23.35-18.23c-1.07-11.27,4.74-20.55,14.47-21.47
													c12.12-1.15,15.94,3.13,17.83,9.92c0.52,1.87,0.89,4.08,1.1,6.66C342.034,238.416,340.934,250.116,331.214,251.686z"/>
												<path style="fill:#E0776E;" d="M312.074,235.416c1.73-2.83,2.98-5.96,3.77-9.17c1.89-0.82,3.45-2.38,4.61-4.17
													c2.32,1.47,4.95,2.46,7.66,2.88c1.24,0.19,2.56,0.26,3.69-0.29c1.13-0.55,1.97-1.87,1.54-3
													c2.07,0.45,4.05,1.29,5.91,2.52c0.8,2.5,1.59,4.99,2.39,7.49c0.19-4.09,0.2-8.19,0.01-12.28
													c-5.85-1.46-11.47-3.83-16.6-7c-0.43-0.26-0.9-0.54-1.39-0.45c-0.29,0.05-0.54,0.23-0.78,0.4
													c-3.88,2.78-7.77,5.56-11.65,8.34C311.334,224.946,311.434,229.196,312.074,235.416z"/>
											</g>
											<g>
												<path style="fill:#2D245D;" d="M346.464,221.726c-0.25,1.05-1.05,2.01-2.02,2.41c-0.46,0.2-0.96,0.26-1.46,0.17
													c-0.18,3.63-0.6,7.38-1.42,11.04c-0.11-4.09-0.65-8.2-1.59-12.23c-2.75-1.94-5.75-3.16-8.88-3.73
													c0.53,0.36,1,1.07,1.03,1.8c0.04,0.73-0.37,1.47-1.01,1.84c-0.9,0.52-2.03,0.27-3.02-0.01c-2.98-0.84-5.9-1.94-8.7-3.26
													c-0.63,2.29-2.43,4.26-4.68,5.23c-0.13,4.6-1.47,9.59-3.45,14.08c-1.71-0.73-2.44-0.72-4.46-1.25
													c-2.82-5.93-3.49-13.99-0.18-19.67c-0.91,0.09-1.79,0.02-2.14-0.62c-0.37-0.65,0.03-1.45,0.49-2.04
													c2.18-2.86,5.79-4.57,9.38-4.45c0.97-1.24,2.05-2.34,3.25-3.28c1.66-1.31,3.52-2.31,5.5-2.95
													c3.39-1.09,7.1-1.11,10.5-0.06c0.95,0.29,2.03,0.87,2.08,1.86c0.04,0.71-0.51,1.35-1.16,1.63
													c-0.65,0.29-1.38,0.3-2.09,0.31c5.52,0.25,10.69,3.67,13.18,8.57C346.324,218.556,346.844,220.186,346.464,221.726z"/>
												<path style="fill:#554678;" d="M346.464,221.726c-0.25,1.05-1.05,2.01-2.02,2.41c0.46-1.06,0.55-2.3,0.3-3.44
													c-0.37-1.7-1.39-3.21-2.55-4.51c-3.53-3.91-8.69-6.31-13.96-6.47c1.17-0.56,2.07-0.96,2.67-1.68
													c0.6-0.72,0.79-1.87,0.19-2.58c-0.57-0.66-1.57-0.69-2.44-0.65c-3.84,0.22-7.63,1.23-11.06,2.96
													c1.66-1.31,3.52-2.31,5.5-2.95c3.39-1.09,7.1-1.11,10.5-0.06c0.95,0.29,2.03,0.87,2.08,1.86
													c0.04,0.71-0.51,1.35-1.16,1.63c-0.65,0.29-1.38,0.3-2.09,0.31c5.52,0.25,10.69,3.67,13.18,8.57
													C346.324,218.556,346.844,220.186,346.464,221.726z"/>
											</g>
											<path style="fill:#F4AC96;" d="M303.089,237.966c0.42-2.18,3.279-3.463,6.387-2.864c3.108,0.598,5.286,2.851,4.867,5.031
												c-0.42,2.18-3.279,3.462-6.387,2.864C304.848,242.399,302.669,240.146,303.089,237.966z"/>
										</g>
										<g>
											<path style="fill:#283547;" d="M325.685,233.192c0.608-0.077,1.174,0.443,1.265,1.161c0.09,0.718-0.33,1.362-0.938,1.438
												c-0.608,0.077-1.174-0.443-1.265-1.161C324.656,233.913,325.076,233.269,325.685,233.192z"/>
											<path style="fill:#283547;" d="M338.862,232.1c0.606-0.09,1.184,0.417,1.291,1.132c0.107,0.716-0.298,1.369-0.905,1.459
												c-0.606,0.09-1.184-0.416-1.291-1.132C337.851,232.843,338.256,232.19,338.862,232.1z"/>
											<path style="fill:none;stroke:#2D245D;stroke-linecap:round;stroke-miterlimit:10;" d="M321.674,230.836
												c1.51-1.46,3.87-1.97,5.85-1.27"/>
											<path style="fill:none;stroke:#BD4A51;stroke-linecap:round;stroke-miterlimit:10;" d="M332.444,235.416
												c0.34,0.99,1.01,3.84,0.63,5.04"/>
											<path style="fill:none;stroke:#BD4A51;stroke-linecap:round;stroke-miterlimit:10;" d="M332.904,244.136
												c-1.58-0.13-4.17-0.5-7.05-2.25"/>
											<path style="fill:none;stroke:#2D245D;stroke-linecap:round;stroke-miterlimit:10;" d="M335.574,229.256
												c1.42-1.04,3.57-1.25,5.17-0.53"/>
										</g>
									</g>
								</g>
								<g>
									<path style="fill:#52C0D1;" d="M331.424,269.206c-10.85-3.33-18.72-10.65-18.72-10.65s-3.31,0.11-6.15,3.68l8.61,15.87
										C319.334,272.866,323.564,270.216,331.424,269.206z"/>
									<path style="fill:#52C0D1;" d="M331.374,269.206c2.68-2.68,2.11-8.91,1.7-10.89c0,0,4.73-0.21,6.92,1.76l5.26,10.58
										C339.684,267.876,335.654,268.446,331.374,269.206z"/>
								</g>
								<g>
									<path style="fill:#E69583;" d="M363.104,299.996c0,0,3.11,13.78,0.11,16.78s-43.03-10.16-43.03-10.16l7.86-7.24l27.07,1.94
										L363.104,299.996z"/>
									<g>
										<path style="fill:#F4AC96;" d="M339.594,295.686c0,0,6.79,5.47,6.07,6.08c-10.3,8.78-31.14,24.92-38.25,24.86
											c-2.86,0-5.64-6.63-7.75-13.51c-0.94-3.03-1.74-6.11-2.36-8.69c-0.9-3.73-1.43-6.42-1.43-6.42l17.53-1.87l0.54,2.24
											l1.78,7.38l0.2,0.85L339.594,295.686z"/>
										<path style="fill:#E0776E;" d="M315.744,305.756l-16.07,7.36c-0.94-3.03-1.74-6.11-2.36-8.69l16.65-6.05L315.744,305.756z
											"/>
									</g>
									<path style="fill:#15A9BF;" d="M298.014,269.206c-10.38,6.5-2.73,40.71-2.73,40.71l22.64-5.55
										C317.924,304.356,309.324,262.126,298.014,269.206z"/>
									<path style="fill:#F4AC96;" d="M334.584,298.666c0,0,6.5-4.81,8.94-5.56c3.08-0.94,11.67,8.18,11.67,8.18l-9.46,0.28
										L334.584,298.666z"/>
									<g>
										<path style="fill:#E69583;" d="M329.724,299.886c0,0,0.01,0.23-0.06,0.44l-8.98,4.27c-1.49-0.92-2.55-2.17-2.55-2.17
											s-3.68,4.35-5.22,3.84c-1.05-0.35-0.19-2.43-0.09-2.65c-0.05,0.06-0.19,0.23-0.38,0.45c-0.52,0.55-1.46,1.32-2.35,0.78
											c-1.25-0.75,0.05-2.92,0.19-3.15c-0.22,0.23-2.37,2.42-3.11,1.38c-1.05-1.47,2.39-5,3.4-6.37c1.02-1.37,4.54-2.3,4.54-2.3
											s-2.8,0.15-3.67,0.46c-1.89,0.69-4.05,3.74-5.22,2.57c-0.68-0.68,1.82-4.49,4.54-5.48c1.74-0.65,5.28-1.09,6.16-0.82
											C320.154,292.056,329.724,299.886,329.724,299.886z"/>
										<g>
											<path style="fill:none;stroke:#BD4A51;stroke-width:0.5;stroke-linecap:round;stroke-miterlimit:10;" d="
												M310.864,301.086c1-1.86,2.58-3.41,4.46-4.38"/>
											<path style="fill:none;stroke:#BD4A51;stroke-width:0.5;stroke-linecap:round;stroke-miterlimit:10;" d="
												M313.484,302.966c1.09-1.47,2.41-2.78,3.89-3.85"/>
										</g>
									</g>
								</g>
							</g>
						</g>
					</g>
					<g>
						<g>
							<g>
								<g>
									<polygon style="fill:#FAC0CD;" points="184.813,368.356 178.223,368.846 175.333,347.566 173.463,333.806 179.673,332.796 
										181.803,347.566 									"/>
									<polygon style="fill:#DB8CA8;" points="181.803,347.566 175.333,347.566 173.463,333.806 179.673,332.796 									"/>
								</g>
								<g>
									<path style="fill:#DB8CA8;" d="M162.793,341.686l-5.3-33.71c-1.4-8.89,5.48-16.93,14.48-16.93h28.47
										c7.22,0,13.36,5.25,14.48,12.38l6.01,38.26H162.793L162.793,341.686z"/>
									<path style="fill:#FAC0CD;" d="M167.533,341.686l-5.3-33.71c-1.4-8.89,5.48-16.93,14.48-16.93h28.47
										c7.22,0,13.36,5.25,14.48,12.38l6.01,38.26H167.533L167.533,341.686z"/>
								</g>
							</g>
							<g>
								<g>
									<polygon style="fill:#DB8CA8;" points="194.303,439.086 204.763,372.046 211.133,372.756 200.883,439.096 									"/>
									<polygon style="fill:#DB8CA8;" points="270.693,438.816 260.753,371.856 254.363,372.606 264.113,438.876 									"/>
								</g>
								<path style="fill:#FAC0CD;" d="M168.683,369.866v-0.02c0-2.8,2.27-5.06,5.06-5.06h87.94c2.8,0,5.06,2.27,5.06,5.06v0.02
									c0,2.8-2.27,5.06-5.06,5.06h-87.94C170.943,374.926,168.683,372.666,168.683,369.866z"/>
								<g>
									<polygon style="fill:#FAC0CD;" points="173.963,439.486 184.513,372.036 190.893,372.736 180.543,439.496 									"/>
									<polygon style="fill:#FAC0CD;" points="241.513,439.236 231.663,371.856 225.273,372.606 234.933,439.286 									"/>
								</g>
							</g>
						</g>
						<g>
							<g>
								<g>
									<g>
										<polygon style="fill:#F4AC96;" points="283.533,315.986 278.083,318.136 271.823,320.626 262.953,324.136 
											260.863,310.886 269.843,308.636 274.093,307.566 281.433,305.726 										"/>
										<polygon style="fill:#E0776E;" points="278.083,318.136 271.823,320.626 269.843,308.636 274.093,307.566 										"/>
									</g>
									<g>
										<path style="fill:#F4AC96;" d="M279.763,307.256c1.48-2.19,2.96-4.38,4.43-6.56c0.44-0.66,1.38-2.06,2-2.56
											c0.61-0.5,1.42-0.82,2.2-0.67s1.12,0.87,1.29,1.78c0.98-0.44,1.43-0.53,2.31-0.15c0.88,0.38,1.35,1.5,1.05,2.47
											c0.72-0.06,1.46,0.29,1.86,0.89c0.4,0.6,0.45,1.42,0.22,2.25c0.78,0.23,1,1.23,0.96,2.04c-0.09,2.22-1.02,4.39-2.56,5.99
											c-0.27,0.28-0.58,0.56-0.96,0.67c-0.38,0.11-0.84,0.02-1.06-0.32c-0.21-0.33-0.11-0.77,0-1.14
											c0.14-0.45,1.23-2.09,1.45-2.49c0.14-0.26-0.17-0.33-0.61-0.46c-0.92,3.76-4.36,6.77-8.22,7.16
											c-0.63,0.06-1.32,0.05-1.82-0.34c-0.48-0.37-0.68-1-0.85-1.58C280.813,311.966,280.163,309.696,279.763,307.256z"/>
										<g>
											<path style="fill:none;stroke:#BD4A51;stroke-width:0.5;stroke-linecap:round;stroke-miterlimit:10;" d="
												M289.693,299.706c-0.11,1.68-0.56,3.34-1.32,4.84c-0.28,0.56-0.72,1.17-1.35,1.17c-0.54,0.01-0.99-0.48-1.14-1.01
												c-0.14-0.53-0.04-1.08,0.05-1.62c0.18-1,0.36-1.99,0.55-2.99"/>
											<path style="fill:none;stroke:#BD4A51;stroke-width:0.5;stroke-linecap:round;stroke-miterlimit:10;" d="
												M292.763,301.876c-0.38,2.1-1.5,4.06-3.13,5.44c-0.33,0.28-0.73,0.55-1.15,0.46c-0.41-0.09-0.68-0.51-0.72-0.93
												c-0.04-0.42,0.18-1.33,0.31-1.73"/>
											<path style="fill:none;stroke:#BD4A51;stroke-width:0.5;stroke-linecap:round;stroke-miterlimit:10;" d="
												M294.903,305.116c-0.65,1.53-1.47,3.08-2.87,3.97c-0.4,0.25-0.89,0.45-1.33,0.28c-0.45-0.17-0.71-0.68-0.71-1.17
												c-0.01-0.48,0.32-1.29,0.51-1.74"/>
											<path style="fill:none;stroke:#BD4A51;stroke-width:0.5;stroke-linecap:round;stroke-miterlimit:10;" d="
												M285.993,302.546c-0.34-0.15-0.69-0.3-1.03-0.45"/>
										</g>
										<path style="fill:#F4AC96;stroke:#BD4A51;stroke-width:0.5;stroke-linecap:round;stroke-miterlimit:10;" d="
											M282.643,305.286c2.12-1.52,4.44-2.76,6.88-3.68c0.47-0.17,1.05-0.32,1.41,0.02c0.24,0.22,0.3,0.59,0.21,0.91
											c-0.08,0.32-0.28,0.59-0.48,0.85c-0.95,1.24-2.11,2.33-3.3,3.27c0.16,2.53-1.39,5.08-3.72,6.09"/>
									</g>
								</g>
								<g>
									<path style="fill:#F28D44;" d="M229.503,282.716l8.86-17.69c0,0,5.54,1.4,7.46,5.5s10.21,34.59,14.23,38.61
										c0.91,0.91,12.14-1.41,12.14-1.41l2,15.53c0,0-16.77,5.76-21.27,4.46C237.403,323.246,229.503,282.716,229.503,282.716z"/>
									<polygon style="fill:#FCB365;" points="266.063,308.346 268.983,326.256 277.653,323.266 273.253,306.806 									"/>
								</g>
							</g>
							<g>
								<g>
									<g>
										<g>
											<path style="fill:#F89D4C;" d="M307.163,439.496h-34.16c0,0-0.29-0.75-0.32-2.1c-0.06-1.95,0.39-5.14,2.97-9.19
												l14.58-0.06c0,0,11.2,0.34,15.9,9.05C306.543,437.906,306.873,438.666,307.163,439.496z"/>
											<path style="fill:#FFE0A3;" d="M307.163,439.496h-34.16c0,0-0.29-0.75-0.32-2.1l33.46-0.2
												C306.543,437.906,306.873,438.666,307.163,439.496z"/>
										</g>
										<g>
											<path style="fill:none;stroke:#FFE0A3;stroke-width:2;stroke-linecap:round;stroke-miterlimit:10;" d="M288.823,430.896
												c0.98-1.14,2.18-2.08,3.52-2.75"/>
											<path style="fill:none;stroke:#FFE0A3;stroke-width:2;stroke-linecap:round;stroke-miterlimit:10;" d="M291.633,431.896
												c0.98-1.14,2.18-2.08,3.52-2.75"/>
											<path style="fill:none;stroke:#FFE0A3;stroke-width:2;stroke-linecap:round;stroke-miterlimit:10;" d="M294.243,432.846
												c0.98-1.14,2.18-2.08,3.52-2.75"/>
										</g>
									</g>
									<path style="fill:#28255C;" d="M228.893,329.976c0,0,48.86,7.08,52.52,15.77s9.61,82.2,9.61,82.2l-18.35,3.53
										c0,0-10.8-58.89-13.39-61.86c-3.97-4.54-63.67-23.71-63.67-23.71L228.893,329.976z"/>
								</g>
								<g>
									<g>
										<g>
											<path style="fill:#F89D4C;" d="M248.713,445.236l-30.91-14.54c0,0,0.06-0.8,0.6-2.04c0.77-1.79,2.55-4.49,6.6-7.05
												l13.22,6.15c0,0,9.99,5.07,10.53,14.96C248.823,443.526,248.803,444.366,248.713,445.236z"/>
											<path style="fill:#FFE0A3;" d="M248.713,445.236l-30.91-14.54c0,0,0.06-0.8,0.6-2.04l30.36,14.06
												C248.823,443.526,248.803,444.366,248.713,445.236z"/>
										</g>
										<g>
											<path style="fill:none;stroke:#FFE0A3;stroke-width:2;stroke-linecap:round;stroke-miterlimit:10;" d="M235.783,429.636
												c1.37-0.62,2.86-0.95,4.36-0.98"/>
											<path style="fill:none;stroke:#FFE0A3;stroke-width:2;stroke-linecap:round;stroke-miterlimit:10;" d="M237.893,431.746
												c1.37-0.62,2.86-0.95,4.36-0.98"/>
											<path style="fill:none;stroke:#FFE0A3;stroke-width:2;stroke-linecap:round;stroke-miterlimit:10;" d="M239.853,433.716
												c1.37-0.62,2.86-0.95,4.36-0.98"/>
										</g>
									</g>
									<g>
										<path style="fill:#40337A;" d="M239.113,428.256l-16.31-5.39c0,0,15.69-50.8,14.29-53.67c-1.5-3.1-43.84,0.71-51.56-4.7
											c-6.91-4.85-6.62-22.83-5.46-31.83c0.53-4.15,1.13-6.99,1.13-6.99l6.46-6.24l3.62-3.5l39.69,12.37l-0.26,0.55l-0.23,0.48
											l-5.72,12.15c0,0,39.38,6.76,40.1,13.38C266.383,369.156,239.113,428.256,239.113,428.256z"/>
										<path style="fill:#28255C;" d="M231.303,328.996c0,0-0.28,0.13-0.82,0.35c-4.53,1.9-27.19,10.49-50.41,3.31
											c0.53-4.15,1.13-6.99,1.13-6.99l6.46-6.24l43.06,9.43L231.303,328.996z"/>
									</g>
								</g>
							</g>
							<g>
								<g>
									<path style="fill:#F89D4C;" d="M231.813,329.176c-5.19,4.08-32.31,5.92-52.04,0.8c0,0,7.55-41.82,14.06-55.15
										c1.85-3.78,5.84-6.62,12.15-8.81c5.4-1.89,11.92-3,18.61-3c2.78,0,5.21,0.15,7.34,0.45c8.98,1.22,11.15,4.21,11.4,9.32
										C243.613,278.836,231.813,329.176,231.813,329.176z"/>
									<path style="fill:#FFE3A6;" d="M229.793,280.076c-7.8,1.16-20.59-10.25-23.82-14.05c5.4-1.89,11.92-3,18.61-3
										c2.78,0,5.21,0.15,7.34,0.45C236.113,269.566,234.283,279.406,229.793,280.076z"/>
								</g>
								<g>
									<g>
										<path style="fill:#F4AC96;" d="M232.193,274.686c0,0,0.02,3.17-4.84,3.17c-4.94,0-16.15-11.4-16.15-11.4
											c1.89-2.16,3.52-4.39,4.79-7.5c0.88-2.15,1.58-4.72,2.07-7.98l15.24,7.43c-0.68,2.44-1.04,4.95-1.21,7.25
											C231.703,270.686,232.193,274.686,232.193,274.686z"/>
										<path style="fill:#E0776E;" d="M233.303,258.396c-0.68,2.44-1.04,4.95-1.21,7.25c-8.38,1-13.49-3.36-16.1-6.7
											c0.88-2.15,1.58-4.72,2.07-7.98L233.303,258.396z"/>
									</g>
									<g>
										<path style="fill:#E0776E;" d="M242.514,240.284c3.049-0.847,5.977,0.11,6.54,2.137c0.563,2.027-1.452,4.357-4.501,5.204
											c-3.049,0.847-5.977-0.11-6.54-2.138C237.45,243.46,239.465,241.13,242.514,240.284z"/>
										<path style="fill:#2D245D;" d="M244.483,227.366c1.57,5.75,1.18,12.02-1.46,17.64c-1.12-4.41-2.95-8.63-5.4-12.47
											c-0.22-0.34-0.45-0.75-0.32-1.13c0.1-0.29,0.38-0.48,0.64-0.64C239.863,229.596,241.773,228.426,244.483,227.366z"/>
										<g>
											<path style="fill:#F4AC96;" d="M234.003,261.466c-12.53,1.86-22.28-6.96-23.35-18.23c-1.07-11.27,4.74-20.55,14.47-21.47
												c12.12-1.15,15.94,3.13,17.83,9.92c0.52,1.87,0.89,4.08,1.1,6.66C244.833,248.196,243.753,260.026,234.003,261.466z"/>
											<path style="fill:#E0776E;" d="M242.953,231.686c-2.02,0.88-5.5-0.83-6.98-0.52c-1.72,0.36-0.88,2.25-4.78,3.69
												c-3.91,1.44-7.45-2.24-8.68-1.02c-2.25,2.25-5.23,1.68-5.23,1.68c-0.07,3.38-0.95,6.72-2.54,9.69l-3.45-6.31l3.3-10.12
												l24.13-4.44C240.553,225.896,242.003,228.236,242.953,231.686z"/>
										</g>
										<g>
											<g>
												<circle style="fill:none;stroke:#15A0BF;stroke-miterlimit:10;" cx="227.123" cy="244.466" r="5.73"/>
												<ellipse style="fill:none;stroke:#15A0BF;stroke-miterlimit:10;" cx="241.033" cy="242.756" rx="5.43" ry="5.73"/>
												<path style="fill:none;stroke:#15A0BF;stroke-miterlimit:10;" d="M231.873,241.436c0,0,1.27-1.36,4.26-0.49"/>
												<line style="fill:none;stroke:#15A0BF;stroke-miterlimit:10;" x1="221.553" y1="242.756" x2="214.013" y2="244.276"/>
											</g>
											<g>
												<ellipse style="fill:#283547;" cx="228.653" cy="244.266" rx="1.11" ry="1.31"/>
												<ellipse style="fill:#283547;" cx="241.843" cy="243.156" rx="1.11" ry="1.31"/>
												<path style="fill:none;stroke:#2D245D;stroke-linecap:round;stroke-miterlimit:10;" d="M237.783,234.666
													c1.42-1.04,3.57-1.25,5.17-0.53"/>
												<path style="fill:none;stroke:#2D245D;stroke-linecap:round;stroke-miterlimit:10;" d="M220.723,237.066
													c1.35-1.61,3.63-2.38,5.68-1.9"/>
												<path style="fill:none;stroke:#BD4A51;stroke-linecap:round;stroke-miterlimit:10;" d="M235.003,243.956
													c0.76,1.99,1.06,4.16,0.88,6.29"/>
												<path style="fill:none;stroke:#BD4A51;stroke-linecap:round;stroke-miterlimit:10;" d="M235.463,253.376
													c-2.57,0.27-5.23-0.43-7.35-1.91"/>
											</g>
										</g>
										<g>
											<path style="fill:#2D245D;" d="M247.433,225.856c-0.13,1.46-0.7,2.56-1.5,3.35c-1.99,1.99-5.41,2.12-6.86,1.52
												c-1.17-0.49-2.46-1.12-3.67-0.69c-1.35,0.47-1.94,2.07-3.13,2.87c-1.45,0.98-3.42,0.58-5.07-0.03
												c-1.64-0.6-3.36-1.39-5.08-1.05c-1.15,0.22-2.13,0.91-3.18,1.41c-1.05,0.49-2.35,0.79-3.33,0.55
												c0.79,4.9,0.31,9.98-1.45,14.69c-1.62-0.16-4.07-1.13-5.55-1.06c-6-9.69-4.8-19.61-4.33-21.01
												c0.46-1.41,1.45-2.7,2.89-3.21c0.25-1.66,0.59-3.35,1.39-4.83c0.8-1.49,2.13-2.77,3.79-3.17
												c2.32-0.56,4.85,0.65,7.09-0.14c1.39-0.5,2.39-1.66,3.44-2.73c0.81-0.81,1.65-1.57,2.73-1.91
												c2.44-0.76,4.9,0.88,7.4,1.43c2.07,0.45,4.24,0.13,6.37,0.2c2.12,0.07,4.45,0.68,5.64,2.41
												c0.85,1.23,0.98,2.78,1.26,4.24C246.733,221.096,247.653,223.446,247.433,225.856z"/>
											<path style="fill:#554678;" d="M247.433,225.856c-0.13,1.46-0.7,2.56-1.5,3.35c0.32-2.85,0.45-5.72-0.32-8.46
												c-0.98-3.5-3.83-6.74-7.46-6.99c-2.12-0.14-4.22,0.73-6.35,0.58c-1.45-0.1-2.81-0.68-4.17-1.2
												c-1.36-0.51-2.78-1-4.23-0.89c-0.18,0.02-0.35,0.04-0.52,0.07c0.81-0.81,1.65-1.57,2.73-1.91
												c2.44-0.76,4.9,0.88,7.4,1.43c2.07,0.45,4.24,0.13,6.37,0.2c2.12,0.07,4.45,0.68,5.64,2.41
												c0.85,1.23,0.98,2.78,1.26,4.24C246.733,221.096,247.653,223.446,247.433,225.856z"/>
										</g>
										<ellipse style="fill:#F4AC96;" cx="210.523" cy="248.486" rx="5.73" ry="4.02"/>
									</g>
								</g>
							</g>
							<g>
								<g>
									<g>
										<polygon style="fill:#F4AC96;" points="259.193,307.496 255.703,310.416 254.513,311.416 242.003,321.896 
											239.333,324.136 233.673,309.916 240.653,306.386 246.933,303.216 248.403,302.476 253.713,299.786 										"/>
										<polygon style="fill:#E0776E;" points="254.513,311.416 242.003,321.896 240.653,306.386 246.933,303.206 
											246.933,303.216 										"/>
									</g>
									<g>
										<path style="fill:#F4AC96;" d="M252.323,302.196c1.82-3.97,3.99-10.9,5.41-12.12c1-0.86,6.23-2.88,7.57-2.77
											c0.96,0.08,2.93,1.57,4.12,2.72c0.38,0.37,0.76,0.8,0.82,1.33c0.06,0.53-0.12,1.05-0.6,0.98
											c-1.62-0.24-3.15-1.25-4.57-2.01c-1.29,0.22-2.53,0.73-3.81,1.69c2.74,0,3.84,0.07,5.58,0.39
											c0.97,0.18,2.03,1.65,1.81,2.75c1.58,0.29,2.23,1.88,1.63,3.38c1.04,0.19,1.82,0.61,1.92,1.24
											c0.1,0.62-0.71,2.56-0.95,3.15c-1.13,2.75-2.14,5.64-3.42,5.13c-0.94-0.38,0.3-4.43,0.6-5.35
											c0.08-0.24-0.83-0.49-0.92-0.27c-1.01,2.34-6.25,5.55-10.27,5.55C255.783,305.776,253.843,304.306,252.323,302.196z"/>
										<path style="fill:none;stroke:#BD4A51;stroke-width:0.5;stroke-linecap:round;stroke-miterlimit:10;" d="M269.633,298.326
											c-1.73-0.15-3.55-0.2-5.53-0.2"/>
										<path style="fill:none;stroke:#BD4A51;stroke-width:0.5;stroke-linecap:round;stroke-miterlimit:10;" d="M268.053,295.046
											c-2.07-0.36-4.19-0.39-6.26-0.11"/>
									</g>
								</g>
								<g>
									<path style="fill:#FCB365;" d="M195.353,274.506c2.69-2.9,6.6-5.89,14.52,4.59c7.35,9.73,17.14,26.55,20.56,27.75
										c3.96,1.4,13.05-3.61,13.05-3.61l6.97,16.26c0,0-15.76,9.22-23.05,8.24c-11.08,0-26.8-25.07-31.89-34.73
										C192.483,287.256,190.343,279.906,195.353,274.506z"/>
									<polygon style="fill:#FFE3A6;" points="239.333,304.746 245.303,323.266 252.953,318.266 245.873,301.596 									"/>
								</g>
							</g>
						</g>
					</g>
					<g>
						<g>
							<rect x="177.642" y="335.376" style="fill:#7868AD;" width="5.87" height="104.92"/>
							<rect x="238.792" y="335.376" style="fill:#7868AD;" width="5.87" height="104.92"/>
						</g>
						<rect x="500.222" y="331.946" style="fill:#A193CC;" width="5.87" height="107.18"/>
						<g>
							<rect x="166.812" y="327.636" style="fill:#A193CC;" width="351.28" height="8.63"/>
							<rect x="166.812" y="327.636" style="fill:#7868AD;" width="88.06" height="8.63"/>
						</g>
					</g>
				</g>
			</g>
			<g>
				<g>
					<path style="fill:#F4AC96;" d="M582.706,239.285l-7.65-22.84c0,0-5.24,2.77-7.97,8.42c-1.9,3.93-7.25,20.97-9.36,22.03
						c-2.69,1.34-18.32-16.97-18.32-16.97l-8.09,4.45c0,0,21.49,34.49,29.05,31.64C567.916,263.165,582.706,239.285,582.706,239.285
						z"/>
					<g>
						<path style="fill:#F4AC96;" d="M540.626,232.485c0-5.28,0-10.57,0-15.85c0-0.47,0-0.96-0.16-1.4
							c-0.16-0.44-0.51-0.84-0.94-0.89c-0.81-0.08-1.23,0.99-1.39,1.86c-0.45,2.39-0.8,4.8-1.39,7.49
							c-3.2-4.07-5.15-6.39-8.35-10.47c-0.39-0.49-0.9-1.04-1.47-0.91c-0.53,0.12-0.81,0.79-0.75,1.38
							c0.07,0.59,0.38,1.11,0.69,1.61c1.42,2.28,1.6,2.8,3.02,5.49c-2.43-2.16-3.62-3.08-6.18-5.05c-0.51-0.39-1.05-0.79-1.65-0.92
							c-0.61-0.13-1.31,0.08-1.61,0.67c-0.3,0.58,0.04,1.51,0.55,1.96c-0.43-0.21-1.34,0.01-1.64,0.56
							c-0.31,0.55,0.05,1.39,0.46,2.15c-0.42-0.19-1.08,0.21-1.13,0.7c-0.06,0.49,0.16,0.97,0.38,1.41
							c3.69,7.21,8.05,12.07,14.99,15.48C535.736,236.025,537.426,234.305,540.626,232.485z"/>
						<path style="fill:none;stroke:#BD4A51;stroke-width:0.5;stroke-linecap:round;stroke-miterlimit:10;" d="M521.386,217.635
							c2.33,2.28,3.87,3.64,6.32,5.8"/>
						<path style="fill:none;stroke:#BD4A51;stroke-width:0.5;stroke-linecap:round;stroke-miterlimit:10;" d="M520.076,220.375
							c2.26,2.56,3.33,3.59,5.46,6.17"/>
						<path style="fill:none;stroke:#BD4A51;stroke-width:0.5;stroke-linecap:round;stroke-miterlimit:10;" d="M536.696,224.125
							c-1.92,1.76-2.71,4.64-1.97,7.14"/>
					</g>
				</g>
				<g>
					<g>
						<g>
							<polygon style="fill:#F4AC96;" points="589.436,320.725 588.756,322.555 588.756,322.565 580.336,345.245 548.456,431.135 
								534.836,431.135 554.946,341.365 560.716,315.595 588.816,320.615 							"/>
							<path style="fill:#E0776E;" d="M585.176,328.415c0.22-2.88,0.79-5.51,0.67-8.33l-25.13-4.49l-5.77,25.77
								c3.14,0.15,8.34,0.52,13.82,1.38c2.6,0.41,6.68,1.44,11.57,2.5l5.65-15.23C585.476,329.705,585.116,329.165,585.176,328.415z
								"/>
						</g>
						<g>
							<path style="fill:#F4AC96;" d="M552.456,438.315h-9.1l-0.5-2.15l-3.01,2.15h-24.92c-0.18-3.86,2.54-6.79,6.24-8.98
								c7.31-4.34,18.43-5.77,18.43-5.77l9.38,1.04c0.88,1.3,1.56,2.57,2.07,3.92C552.066,431.215,552.456,434.215,552.456,438.315z
								"/>
							<path style="fill:#2E4A78;" d="M552.456,438.315h-9.1l-0.5-2.15l-3.01,2.15h-24.92c-0.18-3.86,2.54-6.79,6.24-8.98
								c2.74,4.2,22.07,0.77,29.88-0.81C552.066,431.215,552.456,434.215,552.456,438.315z"/>
						</g>
					</g>
					<g>
						<g>
							<polygon style="fill:#F4AC96;" points="618.336,311.335 617.436,316.375 611.876,347.595 597.006,431.135 585.536,431.135 
								588.036,346.745 588.756,322.565 588.756,322.555 588.816,320.615 588.956,315.735 589.066,312.065 							"/>
							<path style="fill:#E0776E;" d="M588.956,315.735l-0.02,0.76c0.19,0.21,0.33,0.49,0.4,0.86c0.69,3.83,0.7,7.8-0.29,11.59
								c-0.09,0.36-0.27,0.63-0.5,0.85l-0.5,16.95c7.63,1.3,16.16,2.11,23.84,0.85l5.56-31.22L588.956,315.735z"/>
						</g>
						<g>
							<path style="fill:#F4AC96;" d="M583.126,438.315h9.1l0.5-2.15l3.01,2.15h24.92c0.18-3.86-2.54-6.79-6.24-8.98
								c-7.31-4.34-18.43-5.77-18.43-5.77l-9.38,1.04c-0.88,1.3-1.56,2.57-2.07,3.92
								C583.516,431.215,583.126,434.215,583.126,438.315z"/>
							<path style="fill:#2E4A78;" d="M583.126,438.315h9.1l0.5-2.15l3.01,2.15h24.92c0.18-3.86-2.54-6.79-6.24-8.98
								c-2.74,4.2-22.07,0.77-29.88-0.81C583.516,431.215,583.126,434.215,583.126,438.315z"/>
						</g>
					</g>
				</g>
				<g>
					<path style="fill:#F2819F;" d="M620.946,344.415c-18.4,2.39-53.56-3.56-67.52-5.61l3.67-16.66l14.02-63.66l33.74-0.64
						c0,0,13.41,11.41,14.48,23.65c0.44,5,0.76,11.65,0.99,18.76C620.986,320.485,620.946,344.415,620.946,344.415z"/>
					<path style="fill:#ED7498;" d="M620.946,344.415c-18.4,2.39-53.56-3.56-67.52-5.61l3.67-16.66
						c36.34,5.95,54.53-9.11,63.23-21.89C620.986,320.485,620.946,344.415,620.946,344.415z"/>
				</g>
				<g>
					<path style="fill:#F2819F;" d="M617.306,241.035c-2.65,8.75-6.11,17.88-8.01,22.74c-0.87,2.23-1.42,3.56-1.42,3.56l-37.6-2.3
						c0,0-0.08-0.61-0.2-1.7c-0.24-2.1-0.64-5.96-1-10.56c-0.87-11.14-1.45-26.66,1.36-32.27c1.63-3.27,11.21-8.3,23.65-9.2
						c11.61-0.84,24.9,5.51,26.41,9.2C621.836,223.795,619.976,232.225,617.306,241.035z"/>
					<path style="fill:#ED7498;" d="M569.076,252.775c36.47,17.65,40.8-28.63,40.8-28.63l7.43,16.89
						c-2.65,8.75-6.11,17.88-8.01,22.74c-18.85,4.59-34.58,0.9-39.22-0.44"/>
					<path style="fill:#FFD4E3;" d="M587.906,226.365c0.845,0,1.53,0.685,1.53,1.53s-0.685,1.53-1.53,1.53
						c-0.845,0-1.53-0.685-1.53-1.53S587.061,226.365,587.906,226.365z"/>
					<path style="fill:#FFD4E3;" d="M587.906,234.365c0.845,0,1.53,0.685,1.53,1.53s-0.685,1.53-1.53,1.53
						c-0.845,0-1.53-0.685-1.53-1.53S587.061,234.365,587.906,234.365z"/>
				</g>
				<g>
					<path style="fill:#F4AC96;" d="M607.856,232.035c0-7.96,3.38-16.64,9.85-14.32c7.49,2.69,15.7,47.96,13.66,51.57
						c-3,5.29-36.71,6.78-36.71,6.78l-2.4-8.6c0,0,22.64-4.84,23.15-6.93C616.086,257.675,607.856,243.485,607.856,232.035z"/>
					<g>
						<path style="fill:#EB9A88;" d="M579.866,263.005c0,0-6.65-0.77-6.85,0.84c-0.2,1.61,9.01,4.55,9.01,4.55L579.866,263.005z"/>
						<g>
							<path style="fill:#F4AC96;" d="M596.586,267.415c-2.42-3.5-7.37-8.05-9.23-8.89c-1.32-0.6-6.7-0.24-7.96,0.38
								c-1.15,0.57-2.45,2.41-2.72,4.18c-0.08,0.51-0.16,1.04,0.01,1.53c0.17,0.49,0.7,0.69,1.94,0.75
								c-0.56,0.5-0.68,1.28-0.38,1.97c0.3,0.68,0.94,1.13,2.36,1.13c-0.65,0.47-0.83,1.77-0.24,2.62c0.46,0.66,1.24,1.28,2.5,0.96
								c-0.56,0.68-0.27,1.67,0.35,2.29c1.48,1.48,4.56,0.88,5.5-0.05c0.74,1.19,2.06,1.57,3.41,1.96c1.35,0.39,2.84,0.26,4.07-0.46
								C596.156,272.965,596.426,270.155,596.586,267.415z"/>
							<g>
								<path style="fill:none;stroke:#BD4A51;stroke-width:0.5;stroke-linecap:round;stroke-miterlimit:10;" d="M578.986,265.135
									c1.96-1.48,4.09-2.74,6.33-3.73"/>
								<path style="fill:none;stroke:#BD4A51;stroke-width:0.5;stroke-linecap:round;stroke-miterlimit:10;" d="M580.836,268.465
									c2.06-1.78,4.45-3.17,7.01-4.07"/>
								<path style="fill:none;stroke:#BD4A51;stroke-width:0.5;stroke-linecap:round;stroke-miterlimit:10;" d="M583.246,271.605
									c1.79-1.5,3.88-2.66,6.11-3.38"/>
								<path style="fill:none;stroke:#BD4A51;stroke-width:0.5;stroke-linecap:round;stroke-miterlimit:10;" d="M588.706,274.025
									c-0.42-0.65-0.66-1.42-0.67-2.19"/>
								<path style="fill:none;stroke:#BD4A51;stroke-width:0.5;stroke-linecap:round;stroke-miterlimit:10;" d="M588.266,273.185
									c-0.58,0.26-1.27,0.26-1.86,0.02"/>
							</g>
						</g>
					</g>
				</g>
				<g>
					<g>
						<g>
							<path style="fill:#E0608F;" d="M589.766,220.705c0,0,12.34,6.76,14.21,5.83c2.94-1.46,3.87-12.44,3.87-12.44L589.766,220.705
								z"/>
							<path style="fill:#E0608F;" d="M589.066,220.505c0,0-11.38,4.66-12.7,3.64c-2.07-1.59,1.58-8.52,1.58-8.52L589.066,220.505z"
								/>
						</g>
						<g>
							<g>
								<path style="fill:#F4AC96;" d="M589.436,220.505c6.18,0,13.65-6.94,13.65-6.94c-0.91-2.65-2.76-6.61-2.49-11.22
									c0.07-1.27,0.22-2.64,0.43-4.14l-13.81,2.21c-0.17,4.07-1.19,8.46-1.37,9.18c-0.94,3.9-3.25,5.12-3.25,5.12
									S583.836,220.505,589.436,220.505z"/>
								<path style="fill:#E0776E;" d="M585.836,209.595c6.7,1.11,12.38-4.46,14.75-7.25c0.07-1.27,0.22-2.64,0.43-4.14l-13.81,2.21
									c-0.1,2.53-0.48,5.03-0.94,7.26C586.126,208.335,585.976,208.975,585.836,209.595z"/>
							</g>
							<path style="fill:#FFD4E3;" d="M589.066,220.505c0,0,10.55-3.73,13.16-10.03c0,0,5.11,1.64,5.58,2.72
								c0.46,1.08-2.44,11.67-4.39,11.67S589.066,220.505,589.066,220.505z"/>
							<path style="fill:#FFD4E3;" d="M589.036,220.485c0,0-4.66-6.13-4.39-8.51c0,0-5.01,0.69-6.16,2.21
								c-1.15,1.52-2.83,7.59-1.79,8.86C577.736,224.315,589.036,220.485,589.036,220.485z"/>
						</g>
					</g>
					<g>
						<path style="fill:#E0776E;" d="M572.133,187.933c0.563-2.027,3.491-2.984,6.54-2.138c3.049,0.847,5.064,3.177,4.501,5.204
							c-0.563,2.027-3.491,2.984-6.54,2.138C573.586,192.291,571.57,189.961,572.133,187.933z"/>
						<g>
							<path style="fill:#F4AC96;" d="M588.206,206.245c8.39,0,20.43-7.54,21.5-18.81c1.07-11.27-3.92-20.18-13.62-21.39
								c-15.87-1.99-18.29,11-18.93,16.58C575.756,194.765,578.356,206.245,588.206,206.245z"/>
							<path style="fill:#E0776E;" d="M606.736,189.935c-1.93-1.51-3.54-5.28-4.83-7.03c-1.87-1.2-3.7-2.3-4.83-4.45
								c-1.68,0.83-3.39,1.67-5.21,2.11c-1.83,0.44-3.81,0.45-5.52-0.35c-0.56-0.26-1.1-0.62-1.44-1.14
								c-0.34-0.52-0.45-1.22-0.41-1.79c-1.78,0.38-3.5,1.07-5.09,2.06c-0.9,1.81-1.8,3.61-2.71,5.42c0.53-3.27,1.06-6.54,1.58-9.82
								c8.72-2.89,17.57-5.37,26.52-7.43c0.57,3.88,1.99,7.64,4.11,10.94c0.47,0.73,1,1.51,0.97,2.38c-0.02,0.51-0.23,1-0.44,1.47
								C608.576,184.195,607.976,187.385,606.736,189.935z"/>
						</g>
						<g>
							<path style="fill:#273A52;" d="M591.696,189.782c0.09-0.718,0.656-1.238,1.265-1.161c0.608,0.076,1.028,0.72,0.938,1.438
								c-0.09,0.718-0.656,1.238-1.265,1.161C592.026,191.144,591.606,190.5,591.696,189.782z"/>
							<path style="fill:#273A52;" d="M579.056,187.79c0.107-0.716,0.685-1.223,1.291-1.132c0.606,0.09,1.012,0.744,0.905,1.459
								c-0.107,0.716-0.685,1.223-1.291,1.132C579.355,189.159,578.95,188.505,579.056,187.79z"/>
							<path style="fill:none;stroke:#2D245D;stroke-linecap:round;stroke-miterlimit:10;" d="M597.006,186.295
								c-1.51-1.46-3.87-1.97-5.85-1.27"/>
							<path style="fill:none;stroke:#BD4A51;stroke-linecap:round;stroke-miterlimit:10;" d="M584.026,189.455
								c-0.25,1.02-0.65,3.92-0.17,5.08"/>
							<path style="fill:none;stroke:#2D245D;stroke-linecap:round;stroke-miterlimit:10;" d="M583.656,183.855
								c-1.42-1.04-3.57-1.25-5.17-0.53"/>
							<path style="fill:#BD4A51;" d="M585.546,197.055c2.4-0.37,4.76-1.03,7.13-1.98c0.91,1.36,0.87,3.29-0.1,4.61
								c-0.97,1.32-2.79,1.95-4.37,1.49C586.636,200.725,585.426,199.225,585.546,197.055z"/>
						</g>
						<g>
							<path style="fill:#241E57;" d="M609.313,159.772c5.589-2.206,12.01,0.794,14.342,6.701s-0.308,12.485-5.897,14.691
								c-5.589,2.206-12.01-0.794-14.342-6.701C601.084,168.556,603.724,161.978,609.313,159.772z"/>
							<g>
								<path style="fill:#2C2460;" d="M610.526,192.325c-2.42,0.37-1.49-0.1-2.92,0.6c-1.96-3.67-4.32-7.17-5.12-11.35
									c-2.04-1.19-3.6-3.18-4.05-5.68c-2.85,1.76-6.13,2.82-9.46,3.08c-0.97,0.08-2.15-0.04-2.55-0.92
									c-0.22-0.49-0.11-1.08,0.16-1.54c0.27-0.46,0.68-0.82,1.21-1.42c-3.06,0.76-6.06,1.8-8.96,3.23
									c-1.06,3.14-1.8,6.39-2.08,9.73c-0.87-3.29-1.5-7.83-0.33-12.76c0.3-1.22,0.7-2.47,1.24-3.73
									c1.53-3.56,7.65-9.34,16.42-8.93c3.47,0.16,6.47,0.65,9.01,1.51c4.96,1.67,8.15,4.74,9.59,9.51
									C614.826,180.775,612.596,187.925,610.526,192.325z"/>
								<path style="fill:#554678;" d="M603.096,164.145c-5.53-0.48-11.16,0.31-16.19,2.62c-4.13,1.9-7.8,4.87-10.48,8.53
									c0.3-1.22,0.7-2.47,1.24-3.73c1.53-3.56,7.65-9.34,16.42-8.93C597.556,162.795,600.556,163.285,603.096,164.145z"/>
							</g>
						</g>
						<path style="fill:#F4AC96;" d="M607.141,188.988c3.108-0.598,5.967,0.684,6.387,2.864c0.42,2.18-1.759,4.433-4.867,5.031
							c-3.108,0.599-5.967-0.684-6.387-2.864C601.855,191.839,604.034,189.586,607.141,188.988z"/>
					</g>
				</g>
			</g>
		</g>
	</g>
</g>
</svg>
