<svg width="441" height="330" viewBox="0 0 441 330" fill="none" xmlns="http://www.w3.org/2000/svg">
<path d="M211.189 126.59C211.662 125.26 211.921 123.829 211.921 122.336C211.921 115.463 206.463 109.868 199.646 109.64C198.1 103.341 192.419 98.667 185.644 98.667C185.267 98.667 184.894 98.686 184.525 98.715C183.284 97.697 181.817 96.944 180.212 96.541C179.418 92.567 176.618 89.32 172.912 87.895C173.068 86.796 173.154 85.674 173.154 84.532C173.154 71.432 162.535 60.813 149.435 60.813C136.747 60.813 126.386 70.775 125.748 83.305C117.122 84.32 110.429 91.651 110.429 100.55C110.429 100.937 110.446 101.321 110.471 101.702C105.761 102.306 102.119 106.32 102.119 111.194C102.119 114.901 104.229 118.11 107.31 119.702C107.181 120.33 107.112 120.98 107.112 121.646C107.112 123.406 107.595 125.05 108.423 126.467H108.221C104.579 126.467 101.6 129.446 101.6 133.088C101.6 136.729 104.579 139.709 108.221 139.709H209.932C213.574 139.709 216.553 136.73 216.553 133.088C216.552 129.876 214.234 127.183 211.189 126.59Z" fill="#DFF1FD"/>
<path d="M257.063 107.861C256.703 106.847 256.505 105.757 256.505 104.619C256.505 99.381 260.664 95.118 265.86 94.944C267.038 90.144 271.367 86.581 276.531 86.581C276.818 86.581 277.102 86.596 277.384 86.617C278.33 85.841 279.447 85.267 280.671 84.96C281.276 81.932 283.41 79.457 286.234 78.371C286.115 77.533 286.05 76.679 286.05 75.808C286.05 65.825 294.143 57.732 304.126 57.732C313.795 57.732 321.691 65.324 322.178 74.872C328.752 75.646 333.852 81.233 333.852 88.014C333.852 88.309 333.839 88.602 333.82 88.892C337.409 89.352 340.185 92.411 340.185 96.125C340.185 98.95 338.577 101.396 336.229 102.609C336.328 103.087 336.38 103.583 336.38 104.09C336.38 105.431 336.012 106.684 335.381 107.764H335.535C338.31 107.764 340.581 110.035 340.581 112.81C340.581 115.585 338.31 117.856 335.535 117.856H258.022C255.247 117.856 252.976 115.585 252.976 112.81C252.976 110.365 254.743 108.312 257.063 107.861Z" fill="#DFF1FD"/>
<path d="M205.245 35.837C204.988 35.112 204.846 34.333 204.846 33.52C204.846 29.775 207.819 26.727 211.534 26.603C212.376 23.171 215.472 20.625 219.163 20.625C219.368 20.625 219.571 20.635 219.773 20.651C220.449 20.096 221.248 19.686 222.123 19.466C222.556 17.301 224.081 15.532 226.1 14.755C226.015 14.156 225.968 13.545 225.968 12.923C225.968 5.786 231.754 0 238.891 0C245.804 0 251.449 5.428 251.797 12.254C256.497 12.807 260.143 16.801 260.143 21.65C260.143 21.861 260.134 22.07 260.12 22.278C262.686 22.607 264.67 24.794 264.67 27.449C264.67 29.469 263.52 31.217 261.842 32.085C261.912 32.427 261.95 32.781 261.95 33.144C261.95 34.103 261.687 34.998 261.236 35.771H261.346C263.33 35.771 264.953 37.394 264.953 39.378C264.953 41.362 263.33 42.985 261.346 42.985H205.931C203.947 42.985 202.324 41.362 202.324 39.378C202.323 37.628 203.586 36.16 205.245 35.837Z" fill="#DFF1FD"/>
<path d="M287.217 191.984C286.857 190.97 286.659 189.88 286.659 188.742C286.659 183.504 290.818 179.24 296.014 179.067C297.192 174.267 301.522 170.704 306.685 170.704C306.972 170.704 307.256 170.718 307.538 170.74C308.484 169.964 309.601 169.39 310.825 169.083C311.43 166.055 313.564 163.58 316.388 162.494C316.269 161.656 316.204 160.802 316.204 159.931C316.204 149.948 324.297 141.855 334.28 141.855C343.949 141.855 351.845 149.447 352.332 158.995C358.906 159.769 364.006 165.356 364.006 172.137C364.006 172.432 363.993 172.724 363.974 173.015C367.563 173.475 370.339 176.534 370.339 180.248C370.339 183.073 368.731 185.519 366.383 186.732C366.482 187.21 366.534 187.706 366.534 188.213C366.534 189.554 366.166 190.807 365.535 191.887H365.689C368.464 191.887 370.735 194.158 370.735 196.933C370.735 199.708 368.464 201.979 365.689 201.979H288.176C285.401 201.979 283.13 199.708 283.13 196.933C283.13 194.488 284.896 192.435 287.217 191.984Z" fill="#DFF1FD"/>
<path d="M31.596 226.641C31.236 225.627 31.038 224.537 31.038 223.399C31.038 218.161 35.197 213.898 40.393 213.724C41.571 208.924 45.9 205.362 51.064 205.362C51.351 205.362 51.635 205.376 51.917 205.398C52.863 204.622 53.98 204.048 55.204 203.741C55.809 200.713 57.943 198.238 60.767 197.152C60.648 196.315 60.583 195.46 60.583 194.589C60.583 184.606 68.676 176.513 78.659 176.513C88.328 176.513 96.224 184.105 96.711 193.654C103.285 194.428 108.385 200.014 108.385 206.796C108.385 207.091 108.372 207.383 108.353 207.674C111.942 208.134 114.718 211.193 114.718 214.907C114.718 217.732 113.11 220.178 110.762 221.391C110.861 221.869 110.913 222.365 110.913 222.872C110.913 224.213 110.545 225.466 109.914 226.546H110.068C112.843 226.546 115.114 228.817 115.114 231.592C115.114 234.367 112.843 236.638 110.068 236.638H32.555C29.78 236.638 27.509 234.367 27.509 231.592C27.51 229.145 29.276 227.093 31.596 226.641Z" fill="#DFF1FD"/>
<path d="M220.073 329.845C341.616 329.845 440.146 313.991 440.146 294.434C440.146 274.877 341.616 259.023 220.073 259.023C98.53 259.023 0 274.877 0 294.434C0 313.991 98.53 329.845 220.073 329.845Z" fill="#C6E6FD"/>
<path d="M364.712 121.858C364.712 121.858 358.062 97.711 359.293 87.067C360.523 76.423 366.364 79.815 367.47 87.755C368.576 95.695 375.125 91.526 370.297 79.965C365.469 68.404 376.987 60.492 379.194 67.493C381.402 74.494 371.731 99.062 375.351 100.372C378.971 101.682 379.278 89.029 383.179 89.497C387.08 89.965 387.558 102.327 380.251 111.162C372.944 119.996 372.915 126.479 369.914 127.874C366.912 129.269 364.712 121.858 364.712 121.858Z" fill="url(#paint0_linear_11_895)"/>
<path d="M367.997 119.54C367.997 119.54 366.914 109.41 368.62 105.175C370.327 100.94 372.566 92.554 372.566 92.554" stroke="#4089C1" stroke-width="1.8488" stroke-miterlimit="10" stroke-linecap="round"/>
<path d="M368.228 106.239C368.228 106.239 364.723 99.802 365.196 97.008" stroke="#4089C1" stroke-width="1.8488" stroke-miterlimit="10" stroke-linecap="round"/>
<path d="M367.576 110.089C367.712 110.552 380.512 103.748 381.441 99.759" stroke="#4089C1" stroke-width="1.8488" stroke-miterlimit="10" stroke-linecap="round"/>
<path d="M353.365 153.793C353.365 153.793 355.527 135.529 365.962 123.466C376.397 111.403 383.014 109.792 383.014 109.792C383.014 109.792 389.173 124.972 376.495 141.338C363.817 157.703 346.955 170.846 353.365 153.793Z" fill="url(#paint1_linear_11_895)"/>
<path d="M352.379 161.342C352.379 161.342 373.384 131.704 379.872 114.151" stroke="#B2C0CA" stroke-width="0.9244" stroke-miterlimit="10" stroke-linecap="round"/>
<path d="M354.374 158.471C354.374 158.471 362.06 155.311 363.264 154.089" stroke="#B2C0CA" stroke-width="0.9244" stroke-miterlimit="10" stroke-linecap="round"/>
<path d="M358.697 137.54C357.25 140.772 359.931 150.177 359.931 150.177C359.931 150.177 368.118 150.032 369.221 148.761" stroke="#B2C0CA" stroke-width="0.9244" stroke-miterlimit="10" stroke-linecap="round"/>
<path d="M365.268 141.81C365.268 141.81 370.936 141.443 373.927 140.452" stroke="#B2C0CA" stroke-width="0.9244" stroke-miterlimit="10" stroke-linecap="round"/>
<path d="M369.599 134.164C369.599 134.164 378.37 134.654 380.467 132.519" stroke="#B2C0CA" stroke-width="0.9244" stroke-miterlimit="10" stroke-linecap="round"/>
<path d="M367.43 137.993C367.43 137.993 364.344 128.247 366.073 125.645" stroke="#B2C0CA" stroke-width="0.9244" stroke-miterlimit="10" stroke-linecap="round"/>
<path d="M373.727 127.294C373.727 127.294 380.827 127.185 382.537 125.251" stroke="#B2C0CA" stroke-width="0.9244" stroke-miterlimit="10" stroke-linecap="round"/>
<path d="M375.781 123.345C375.781 123.345 373.863 119.172 374.554 118.037" stroke="#B2C0CA" stroke-width="0.9244" stroke-miterlimit="10" stroke-linecap="round"/>
<path d="M354.109 133.805C354.109 133.805 350.789 120.847 354.708 109.929C358.627 99.01 362.694 96.183 362.694 96.183C362.694 96.183 370.851 104.868 366.537 119.294C362.224 133.719 354.229 147.054 354.109 133.805Z" fill="url(#paint2_linear_11_895)"/>
<path d="M355.418 139.185C355.418 139.185 361.902 113.573 361.704 99.964" stroke="#B2C0CA" stroke-width="0.9244" stroke-miterlimit="10" stroke-linecap="round"/>
<path d="M356.019 136.715C356.019 136.715 360.406 132.557 360.902 131.413" stroke="#B2C0CA" stroke-width="0.9244" stroke-miterlimit="10" stroke-linecap="round"/>
<path d="M353.467 121.381C353.332 123.953 357.616 129.631 357.616 129.631C357.616 129.631 363.132 127.387 363.548 126.236" stroke="#B2C0CA" stroke-width="0.9244" stroke-miterlimit="10" stroke-linecap="round"/>
<path d="M359.044 122.556C359.044 122.556 362.794 120.822 364.563 119.365" stroke="#B2C0CA" stroke-width="0.9244" stroke-miterlimit="10" stroke-linecap="round"/>
<path d="M359.979 116.233C359.979 116.233 366.058 114.267 366.921 112.269" stroke="#B2C0CA" stroke-width="0.9244" stroke-miterlimit="10" stroke-linecap="round"/>
<path d="M359.511 119.4C359.511 119.4 354.863 113.596 355.355 111.378" stroke="#B2C0CA" stroke-width="0.9244" stroke-miterlimit="10" stroke-linecap="round"/>
<path d="M360.979 110.491C360.979 110.491 365.767 108.556 366.421 106.796" stroke="#B2C0CA" stroke-width="0.9244" stroke-miterlimit="10" stroke-linecap="round"/>
<path d="M361.338 107.273C361.338 107.273 358.943 104.944 359.114 103.993" stroke="#B2C0CA" stroke-width="0.9244" stroke-miterlimit="10" stroke-linecap="round"/>
<path d="M347.564 224.909C347.564 224.909 328.037 183.043 326.997 163.308C325.957 143.572 337.623 147.943 342.079 162.042C346.535 176.141 357.161 166.543 344.821 147.004C332.481 127.465 350.991 109.531 357.161 121.583C363.331 133.635 353.308 181.291 360.295 182.559C367.282 183.826 363.943 160.722 371.182 160.372C378.421 160.023 383.096 182.357 372.528 200.672C361.96 218.988 363.903 230.785 358.875 234.246C353.847 237.709 347.564 224.909 347.564 224.909Z" fill="url(#paint3_linear_11_895)"/>
<path d="M352.825 219.681C352.825 219.681 347.736 201.592 349.535 193.365C351.335 185.138 352.825 169.199 352.825 169.199" stroke="#4089C1" stroke-width="1.8488" stroke-miterlimit="10" stroke-linecap="round"/>
<path d="M349.15 195.422C349.15 195.422 340.794 184.795 340.794 179.568" stroke="#4089C1" stroke-width="1.8488" stroke-miterlimit="10" stroke-linecap="round"/>
<path d="M349.15 202.624C349.539 203.424 370.722 187.109 371.184 179.568" stroke="#4089C1" stroke-width="1.8488" stroke-miterlimit="10" stroke-linecap="round"/>
<path d="M359.037 263.54C359.037 263.54 348.071 237.42 352.901 213.331C357.731 189.242 365.377 182.06 365.377 182.06C365.377 182.06 385.154 197.73 380.584 229.289C376.014 260.848 363.39 291.262 359.037 263.54Z" fill="url(#paint4_linear_11_895)"/>
<path d="M363.445 274.406C363.445 274.406 369.101 218.738 364.473 190.287" stroke="#B2C0CA" stroke-width="1.8488" stroke-miterlimit="10" stroke-linecap="round"/>
<path d="M363.94 269.045C363.94 269.045 371.844 258.975 372.529 256.425" stroke="#B2C0CA" stroke-width="1.8488" stroke-miterlimit="10" stroke-linecap="round"/>
<path d="M353.847 237.709C354.361 243.139 365.094 253.71 365.094 253.71C365.094 253.71 375.957 247.301 376.471 244.76" stroke="#B2C0CA" stroke-width="1.8488" stroke-miterlimit="10" stroke-linecap="round"/>
<path d="M365.895 238.444C365.895 238.444 373.214 233.65 376.471 230.051" stroke="#B2C0CA" stroke-width="1.8488" stroke-miterlimit="10" stroke-linecap="round"/>
<path d="M365.895 224.909C365.895 224.909 378.023 218.909 379.213 214.454" stroke="#B2C0CA" stroke-width="1.8488" stroke-miterlimit="10" stroke-linecap="round"/>
<path d="M365.895 231.687C365.895 231.687 354.361 220.966 354.704 216.167" stroke="#B2C0CA" stroke-width="1.8488" stroke-miterlimit="10" stroke-linecap="round"/>
<path d="M366.214 212.568C366.214 212.568 375.647 207.032 376.471 203.142" stroke="#B2C0CA" stroke-width="1.8488" stroke-miterlimit="10" stroke-linecap="round"/>
<path d="M365.97 205.715C365.97 205.715 360.232 201.578 360.296 199.532" stroke="#B2C0CA" stroke-width="1.8488" stroke-miterlimit="10" stroke-linecap="round"/>
<path d="M376.379 256.19C376.379 256.19 373.13 228.048 384.485 206.261C395.84 184.474 405.185 179.708 405.185 179.708C405.185 179.708 419.809 200.271 406.621 229.304C393.433 258.337 372.831 284.026 376.379 256.19Z" fill="url(#paint5_linear_11_895)"/>
<path d="M377.583 267.854C377.583 267.854 398.535 215.971 402.023 187.357" stroke="#B2C0CA" stroke-width="1.8488" stroke-miterlimit="10" stroke-linecap="round"/>
<path d="M379.553 262.843C379.553 262.843 389.951 255.376 391.32 253.118" stroke="#B2C0CA" stroke-width="1.8488" stroke-miterlimit="10" stroke-linecap="round"/>
<path d="M378.597 229.936C377.577 235.294 384.937 248.438 384.937 248.438C384.937 248.438 397.156 245.312 398.358 243.015" stroke="#B2C0CA" stroke-width="1.8488" stroke-miterlimit="10" stroke-linecap="round"/>
<path d="M389.962 234.001C389.962 234.001 398.328 231.438 402.458 228.889" stroke="#B2C0CA" stroke-width="1.8488" stroke-miterlimit="10" stroke-linecap="round"/>
<path d="M393.736 221.002C393.736 221.002 407.056 218.621 409.441 214.675" stroke="#B2C0CA" stroke-width="1.8488" stroke-miterlimit="10" stroke-linecap="round"/>
<path d="M391.846 227.512C391.846 227.512 383.758 214.001 385.425 209.487" stroke="#B2C0CA" stroke-width="1.8488" stroke-miterlimit="10" stroke-linecap="round"/>
<path d="M397.482 209.24C397.482 209.24 408.085 206.553 409.961 203.048" stroke="#B2C0CA" stroke-width="1.8488" stroke-miterlimit="10" stroke-linecap="round"/>
<path d="M399.159 202.591C399.159 202.591 394.802 197.018 395.434 195.071" stroke="#B2C0CA" stroke-width="1.8488" stroke-miterlimit="10" stroke-linecap="round"/>
<path d="M172.79 249.053C172.79 249.053 131.673 237.641 107.701 209.448C83.728 181.255 82.372 165.512 82.372 165.512C82.372 165.512 119.358 156.754 152.404 191.611C185.451 226.469 209.628 269.779 172.79 249.053Z" fill="url(#paint6_linear_11_895)"/>
<path d="M189.751 253.983C189.751 253.983 129.213 195.342 91.256 174.26" stroke="#B2C0CA" stroke-width="1.8488" stroke-miterlimit="10" stroke-linecap="round"/>
<path d="M183.874 248.394C183.874 248.394 179.344 229.651 176.969 226.46" stroke="#B2C0CA" stroke-width="1.8488" stroke-miterlimit="10" stroke-linecap="round"/>
<path d="M137.405 231.081C144.305 235.541 166.819 232.717 166.819 232.717C166.819 232.717 169.38 213.893 166.856 210.914" stroke="#B2C0CA" stroke-width="1.8488" stroke-miterlimit="10" stroke-linecap="round"/>
<path d="M149.519 217.522C149.519 217.522 150.682 204.394 149.466 197.185" stroke="#B2C0CA" stroke-width="1.8488" stroke-miterlimit="10" stroke-linecap="round"/>
<path d="M133.516 204.89C133.516 204.89 137.741 184.951 133.584 179.387" stroke="#B2C0CA" stroke-width="1.8488" stroke-miterlimit="10" stroke-linecap="round"/>
<path d="M141.531 211.216C141.531 211.216 118.091 214.847 112.737 209.963" stroke="#B2C0CA" stroke-width="1.8488" stroke-miterlimit="10" stroke-linecap="round"/>
<path d="M119.222 192.996C119.222 192.996 121.481 176.676 117.651 172.071" stroke="#B2C0CA" stroke-width="1.8488" stroke-miterlimit="10" stroke-linecap="round"/>
<path d="M110.893 186.888C110.893 186.888 100.646 189.811 98.287 187.826" stroke="#B2C0CA" stroke-width="1.8488" stroke-miterlimit="10" stroke-linecap="round"/>
<path d="M90.563 199.954C90.563 199.954 65.241 192.926 50.477 175.563C35.713 158.2 34.878 148.505 34.878 148.505C34.878 148.505 57.656 143.111 78.008 164.578C98.36 186.045 113.25 212.718 90.563 199.954Z" fill="url(#paint7_linear_11_895)"/>
<path d="M101.009 202.99C101.009 202.99 63.726 166.875 40.35 153.892" stroke="#B2C0CA" stroke-width="1.8488" stroke-miterlimit="10" stroke-linecap="round"/>
<path d="M97.389 199.548C97.389 199.548 94.599 188.005 93.137 186.04" stroke="#B2C0CA" stroke-width="1.8488" stroke-miterlimit="10" stroke-linecap="round"/>
<path d="M68.771 188.886C73.02 191.633 86.886 189.893 86.886 189.893C86.886 189.893 88.463 178.3 86.909 176.465" stroke="#B2C0CA" stroke-width="1.8488" stroke-miterlimit="10" stroke-linecap="round"/>
<path d="M76.231 180.535C76.231 180.535 76.947 172.45 76.198 168.01" stroke="#B2C0CA" stroke-width="1.8488" stroke-miterlimit="10" stroke-linecap="round"/>
<path d="M66.376 172.756C66.376 172.756 68.978 160.476 66.418 157.05" stroke="#B2C0CA" stroke-width="1.8488" stroke-miterlimit="10" stroke-linecap="round"/>
<path d="M71.312 176.652C71.312 176.652 56.876 178.888 53.579 175.881" stroke="#B2C0CA" stroke-width="1.8488" stroke-miterlimit="10" stroke-linecap="round"/>
<path d="M57.573 165.431C57.573 165.431 58.964 155.38 56.605 152.544" stroke="#B2C0CA" stroke-width="1.8488" stroke-miterlimit="10" stroke-linecap="round"/>
<path d="M52.443 161.669C52.443 161.669 46.132 163.469 44.679 162.247" stroke="#B2C0CA" stroke-width="1.8488" stroke-miterlimit="10" stroke-linecap="round"/>
<path d="M82.548 175.947C82.548 175.947 63.698 157.636 59.069 135.32C54.44 113.004 58.357 104.096 58.357 104.096C58.357 104.096 80.932 110.286 88.496 138.884C96.06 167.482 96.335 198.028 82.548 175.947Z" fill="url(#paint8_linear_11_895)"/>
<path d="M90.258 183.621C90.258 183.621 74.861 134.051 60.574 111.448" stroke="#B2C0CA" stroke-width="1.8488" stroke-miterlimit="10" stroke-linecap="round"/>
<path d="M88.733 178.865C88.733 178.865 91.82 167.398 91.479 164.972" stroke="#B2C0CA" stroke-width="1.8488" stroke-miterlimit="10" stroke-linecap="round"/>
<path d="M68.733 155.785C71.145 160.233 84.146 165.356 84.146 165.356C84.146 165.356 91.09 155.939 90.605 153.584" stroke="#B2C0CA" stroke-width="1.8488" stroke-miterlimit="10" stroke-linecap="round"/>
<path d="M79.284 152.035C79.284 152.035 83.79 145.284 85.261 141.029" stroke="#B2C0CA" stroke-width="1.8488" stroke-miterlimit="10" stroke-linecap="round"/>
<path d="M74.366 140.482C74.366 140.482 82.538 130.954 81.935 126.72" stroke="#B2C0CA" stroke-width="1.8488" stroke-miterlimit="10" stroke-linecap="round"/>
<path d="M76.829 146.268C76.829 146.268 63.089 141.308 61.638 137.087" stroke="#B2C0CA" stroke-width="1.8488" stroke-miterlimit="10" stroke-linecap="round"/>
<path d="M70.154 129.833C70.154 129.833 76.194 121.68 75.485 118.061" stroke="#B2C0CA" stroke-width="1.8488" stroke-miterlimit="10" stroke-linecap="round"/>
<path d="M67.457 124.072C67.457 124.072 61.056 122.626 60.367 120.856" stroke="#B2C0CA" stroke-width="1.8488" stroke-miterlimit="10" stroke-linecap="round"/>
<path d="M97.375 230.885C97.375 230.885 72.614 177.799 71.296 152.775C69.978 127.751 84.77 133.293 90.421 151.17C96.071 169.047 109.546 156.877 93.898 132.102C78.251 107.327 101.722 84.587 109.545 99.869C117.369 115.151 104.66 175.579 113.519 177.186C122.378 178.793 118.145 149.496 127.324 149.053C136.503 148.61 142.431 176.93 129.03 200.154C115.63 223.378 118.094 238.337 111.718 242.726C105.343 247.116 97.375 230.885 97.375 230.885Z" fill="url(#paint9_linear_11_895)"/>
<path d="M104.046 224.257C104.046 224.257 97.593 201.32 99.875 190.889C102.157 180.457 104.046 160.246 104.046 160.246" stroke="#4089C1" stroke-width="1.8488" stroke-miterlimit="10" stroke-linecap="round"/>
<path d="M99.386 193.496C99.386 193.496 88.791 180.021 88.791 173.393" stroke="#4089C1" stroke-width="1.8488" stroke-miterlimit="10" stroke-linecap="round"/>
<path d="M99.386 202.628C99.879 203.642 126.74 182.955 127.324 173.394" stroke="#4089C1" stroke-width="1.8488" stroke-miterlimit="10" stroke-linecap="round"/>
<path d="M172.506 263.66C172.506 263.66 131.034 273.706 96.37 260.749C61.706 247.792 52.858 234.7 52.858 234.7C52.858 234.7 80.902 209.046 126.737 223.408C172.572 237.769 214.774 263.832 172.506 263.66Z" fill="url(#paint10_linear_11_895)"/>
<path d="M189.722 259.71C189.722 259.71 108.295 237.955 64.877 238.016" stroke="#B2C0CA" stroke-width="1.8488" stroke-miterlimit="10" stroke-linecap="round"/>
<path d="M181.867 257.689C181.867 257.689 168.787 243.522 165.158 241.891" stroke="#B2C0CA" stroke-width="1.8488" stroke-miterlimit="10" stroke-linecap="round"/>
<path d="M132.849 265.186C141.047 265.723 159.339 252.297 159.339 252.297C159.339 252.297 152.412 234.607 148.758 233.233" stroke="#B2C0CA" stroke-width="1.8488" stroke-miterlimit="10" stroke-linecap="round"/>
<path d="M136.83 247.445C136.83 247.445 131.455 235.412 126.883 229.706" stroke="#B2C0CA" stroke-width="1.8488" stroke-miterlimit="10" stroke-linecap="round"/>
<path d="M116.702 244.201C116.702 244.201 110.686 224.727 104.347 221.89" stroke="#B2C0CA" stroke-width="1.8488" stroke-miterlimit="10" stroke-linecap="round"/>
<path d="M126.783 245.826C126.783 245.826 108.075 260.408 101.021 258.748" stroke="#B2C0CA" stroke-width="1.8488" stroke-miterlimit="10" stroke-linecap="round"/>
<path d="M98.426 240.769C98.426 240.769 92.455 225.414 86.868 223.256" stroke="#B2C0CA" stroke-width="1.8488" stroke-miterlimit="10" stroke-linecap="round"/>
<path d="M88.177 239.488C88.177 239.488 80.649 247.03 77.622 246.444" stroke="#B2C0CA" stroke-width="1.8488" stroke-miterlimit="10" stroke-linecap="round"/>
<path d="M96.139 251.517C95.021 250.242 93.898 249.238 92.66 248.244C91.432 247.266 90.136 246.365 88.765 245.555C87.396 244.743 85.949 244.024 84.42 243.411C84.041 243.252 83.656 243.108 83.258 242.975L82.666 242.771C82.445 242.701 82.338 242.643 81.957 242.555C80.666 242.191 79.304 242.151 78.08 242.297C76.845 242.443 75.727 242.779 74.754 243.193C73.768 243.605 72.886 244.088 72.094 244.605C70.487 245.637 69.178 246.788 67.959 247.969C66.752 249.153 65.67 250.384 64.67 251.657C64.169 252.293 63.686 252.937 63.217 253.593L62.522 254.592C62.35 254.849 62.197 255.077 62.021 255.352C60.048 257.765 58.083 260.184 56.143 262.623C54.142 265.118 52.142 267.614 50.173 270.134C48.188 272.641 46.228 275.169 44.275 277.702C43.512 278.692 42.77 279.698 42.014 280.693V292.54C43.318 292.568 44.625 292.055 45.541 290.987C47.625 288.559 49.685 286.111 51.723 283.645C53.76 281.179 55.79 278.707 57.795 276.215C59.816 273.736 61.806 271.232 63.795 268.728C65.794 266.232 67.768 263.715 69.733 261.191L69.921 260.949L70.098 260.665L70.565 259.917L71.103 259.108C71.471 258.57 71.853 258.039 72.244 257.52C73.031 256.487 73.85 255.5 74.688 254.601C75.528 253.719 76.402 252.908 77.233 252.333C78.057 251.739 78.847 251.395 79.265 251.332C79.482 251.295 79.61 251.273 79.728 251.304C79.707 251.28 79.942 251.353 80.071 251.387L80.523 251.51C80.825 251.584 81.126 251.687 81.432 251.778C82.652 252.142 83.894 252.567 85.147 253.034C86.401 253.497 87.674 253.984 88.957 254.492C90.227 254.987 91.565 255.555 92.812 255.989L93.068 256.079C94.002 256.402 95.079 256.228 95.875 255.53C97.057 254.496 97.175 252.698 96.139 251.517Z" fill="#0D2933"/>
<path d="M177.909 244.863C177.818 244.329 177.666 243.808 177.469 243.313C177.073 242.327 176.478 241.501 175.856 240.843C175.233 240.177 174.571 239.667 173.919 239.241C173.263 238.807 172.617 238.491 171.975 238.203C171.658 238.068 171.332 237.939 171.021 237.831L170.544 237.663L169.926 237.499C168.268 237.071 166.472 237.046 164.859 237.355C163.231 237.65 161.783 238.232 160.516 238.918C159.236 239.6 158.126 240.402 157.13 241.258C156.126 242.11 155.232 243.011 154.396 243.947C153.979 244.416 153.58 244.895 153.192 245.389L152.617 246.146C152.415 246.426 152.269 246.634 152.012 247.033L151.699 247.518L151.499 248.135C149.652 253.826 147.818 259.521 146.038 265.233L143.638 273.045V287.893C143.656 287.9 143.67 287.91 143.688 287.917C146.035 288.757 148.62 287.536 149.46 285.188C150.469 282.37 151.452 279.544 152.421 276.713L155.279 268.205C157.09 262.743 158.85 257.264 160.597 251.782L160.941 251.295C161.193 250.951 161.457 250.61 161.729 250.282C162.275 249.627 162.85 249.009 163.437 248.477C164.609 247.411 165.811 246.628 166.7 246.413C167.15 246.285 167.51 246.258 167.905 246.32L168.056 246.339L168.335 246.404C168.53 246.443 168.698 246.499 168.878 246.539C169.22 246.626 169.551 246.715 169.816 246.793C170.382 246.95 170.672 247.06 170.874 246.925C170.969 246.869 171.092 246.779 171.255 246.788C171.326 246.792 171.423 246.822 171.504 246.874L171.633 246.959C171.655 246.974 171.678 246.986 171.703 246.996C171.716 246.996 171.728 247.003 171.746 246.999C171.769 246.983 171.764 247.023 171.833 246.914C171.141 248.29 171.696 249.966 173.071 250.657C174.447 251.349 176.123 250.794 176.814 249.419L177.095 248.972L177.288 248.634C177.409 248.411 177.513 248.185 177.596 247.95C177.768 247.483 177.9 246.984 177.944 246.462C177.995 245.944 177.987 245.401 177.909 244.863Z" fill="#0D2933"/>
<path opacity="0.59" d="M50.344 267.295C45.763 267.295 42.014 271.043 42.014 275.625V285.078L59.797 267.295H50.344Z" fill="#7FC8FD"/>
<path opacity="0.59" d="M74.802 267.295H66.315L42.014 291.596V294.896C42.014 298.487 44.32 301.556 47.522 302.72L80.589 269.653C79.087 268.198 77.046 267.295 74.802 267.295Z" fill="#7FC8FD"/>
<path opacity="0.59" d="M83.132 275.625C83.132 273.287 82.153 271.17 80.588 269.654L47.522 302.72C48.406 303.041 49.353 303.226 50.344 303.226H61.176L83.133 281.269L83.132 275.625Z" fill="#F0F8FF"/>
<path opacity="0.59" d="M61.176 303.226H74.803C79.385 303.226 83.133 299.477 83.133 294.896V281.269L61.176 303.226Z" fill="#7FC8FD"/>
<path opacity="0.59" d="M59.797 267.295L42.014 285.078V291.596L66.315 267.295H59.797Z" fill="#F0F8FF"/>
<path opacity="0.59" d="M112.376 267.295C107.794 267.295 104.046 271.043 104.046 275.625V285.528L122.279 267.295H112.376Z" fill="#7FC8FD"/>
<path opacity="0.59" d="M122.279 267.295L104.046 285.528V290.473L127.224 267.295H122.279Z" fill="#F0F8FF"/>
<path opacity="0.59" d="M136.834 267.295H127.224L104.046 290.473V294.896C104.046 298.303 106.12 301.246 109.067 302.533L142.267 269.333C140.805 268.067 138.907 267.295 136.834 267.295Z" fill="#7FC8FD"/>
<path opacity="0.59" d="M145.164 275.625C145.164 273.117 144.036 270.863 142.267 269.333L109.067 302.533C110.083 302.977 111.201 303.226 112.376 303.226H120.96L145.164 279.022V275.625Z" fill="#F0F8FF"/>
<path opacity="0.59" d="M120.96 303.226H136.834C141.415 303.226 145.164 299.477 145.164 294.896V279.022L120.96 303.226Z" fill="#7FC8FD"/>
<path d="M74.802 303.226H50.344C45.763 303.226 42.014 299.477 42.014 294.896V275.625C42.014 271.043 45.762 267.295 50.344 267.295H74.802C79.384 267.295 83.132 271.043 83.132 275.625V294.896C83.132 299.477 79.384 303.226 74.802 303.226Z" stroke="#174859" stroke-width="5.5533" stroke-miterlimit="10"/>
<path d="M136.834 303.226H112.376C107.794 303.226 104.046 299.477 104.046 294.896V275.625C104.046 271.043 107.794 267.295 112.376 267.295H136.834C141.415 267.295 145.164 271.043 145.164 275.625V294.896C145.164 299.477 141.416 303.226 136.834 303.226Z" stroke="#174859" stroke-width="5.5533" stroke-miterlimit="10"/>
<path d="M83.132 283.106C83.132 283.106 94.226 271.107 104.046 283.106" stroke="#174859" stroke-width="5.5533" stroke-miterlimit="10"/>
<path d="M294.186 251.767C296.505 253.559 300.165 255.625 305.096 256.113C307.449 256.346 309.676 254.996 310.555 252.802L312.707 247.429C300.924 248.406 294.709 240.222 294.709 240.222L292.545 245.627C291.671 247.811 292.324 250.328 294.186 251.767Z" fill="#FF5D7B"/>
<path d="M329.766 166.947L300.41 240.243L307.172 242.952L336.529 169.655L329.766 166.947Z" fill="#F4B031"/>
<path d="M336.529 169.656L307.172 242.953L313.499 245.487L342.855 172.19L336.529 169.656Z" fill="#E8A423"/>
<path d="M324.857 164.981L295.5 238.277L300.408 240.243L329.765 166.947L324.857 164.981Z" fill="#F4C43E"/>
<path d="M324.85 164.959L340.139 152.856L342.848 172.167C342.848 172.167 333.225 174.388 324.85 164.959Z" fill="#FACFC9"/>
<path d="M334.41 157.39C336.814 158.952 339.149 159.786 341.17 160.211L340.138 152.855L334.41 157.39Z" fill="#174859"/>
<path d="M293.712 242.714C293.712 242.714 299.927 250.898 311.71 249.921L315.198 241.211C303.416 242.188 297.2 234.004 297.2 234.004L293.712 242.714Z" fill="#174859"/>
<path d="M300.159 264.203C301.936 266.533 304.938 269.475 309.576 271.221C311.789 272.054 314.289 271.326 315.705 269.433L319.172 264.799C307.537 262.698 303.649 253.185 303.649 253.185L300.161 257.847C298.751 259.731 298.731 262.332 300.159 264.203Z" fill="#FF5D7B"/>
<path d="M356.465 191.451L309.161 254.673L314.995 259.037L362.298 195.815L356.465 191.451Z" fill="#F4B031"/>
<path d="M362.297 195.809L314.993 259.031L320.45 263.114L367.754 199.892L362.297 195.809Z" fill="#E8A423"/>
<path d="M352.232 188.283L304.928 251.505L309.161 254.672L356.465 191.451L352.232 188.283Z" fill="#F4C43E"/>
<path d="M352.216 188.269L370.113 180.528L367.739 199.883C367.739 199.883 357.869 199.542 352.216 188.269Z" fill="#FACFC9"/>
<path d="M363.408 183.428C365.326 185.558 367.367 186.968 369.209 187.901L370.113 180.528L363.408 183.428Z" fill="#174859"/>
<path d="M302.04 255.335C302.04 255.335 305.929 264.848 317.563 266.949L323.184 259.436C311.549 257.335 307.661 247.822 307.661 247.822L302.04 255.335Z" fill="#174859"/>
<path d="M412.406 267.135L406.33 289.743C405.769 291.829 403.604 293.077 401.518 292.516C399.432 291.955 398.184 289.79 398.745 287.704L404.821 265.096C405.382 263.01 407.547 261.762 409.633 262.323C411.718 262.884 412.966 265.049 412.406 267.135Z" fill="#AAB9D8"/>
<path d="M342.003 222.682C322.156 217.348 301.729 229.513 297.11 249.733C292.856 268.354 304.039 287.356 322.377 292.699C332.067 295.522 341.94 294.134 350.091 289.643C354.389 287.275 359.409 286.578 364.149 287.852L368.461 289.011C376.383 291.14 384.53 286.444 386.659 278.523L389.762 266.979C391.891 259.057 387.195 250.91 379.274 248.781L374.961 247.622C370.238 246.352 366.239 243.259 363.721 239.066C359.044 231.281 351.467 225.226 342.003 222.682Z" fill="#B4D3F7"/>
<path d="M327.606 221.774C330.238 221.807 332.908 222.161 335.566 222.876C343.931 225.124 350.629 230.476 354.762 237.358C356.987 241.064 360.522 243.798 364.696 244.92L368.509 245.945C375.511 247.827 379.661 255.028 377.779 262.03L375.037 272.233C373.155 279.235 365.954 283.385 358.952 281.503L355.141 280.479C350.952 279.353 346.515 279.969 342.716 282.062C335.511 286.031 326.785 287.258 318.22 284.763C307.826 281.735 300.041 273.739 296.779 264.054C299.146 277.293 308.795 288.745 322.377 292.702C332.067 295.525 341.94 294.137 350.091 289.646C354.389 287.278 359.409 286.582 364.149 287.855L368.461 289.014C376.383 291.143 384.53 286.447 386.659 278.526L389.762 266.982C391.891 259.06 387.195 250.913 379.274 248.784L374.961 247.625C370.238 246.356 366.239 243.262 363.721 239.069C359.045 231.283 351.467 225.228 342.003 222.684C337.159 221.38 332.281 221.128 327.606 221.774Z" fill="#99C5F7"/>
<path d="M382.78 280.074L340.24 268.64C340.24 268.64 345.474 268.783 344.393 264.45C343.312 260.116 332.573 263.757 338.306 265.467C344.039 267.177 350.551 259.029 344.41 254.852C338.269 250.675 334.459 260.263 343.416 258.375C352.373 256.487 345.273 249.915 345.273 249.915L387.812 261.349" stroke="#C1DEFF" stroke-width="1.4337" stroke-miterlimit="10" stroke-linejoin="round"/>
<path d="M397.806 260.205L390.222 288.42C389.522 291.023 386.82 292.581 384.217 291.881C381.614 291.181 380.056 288.479 380.756 285.876L388.34 257.661C389.04 255.058 391.742 253.5 394.345 254.2C396.948 254.899 398.506 257.602 397.806 260.205Z" fill="#E0EFF2"/>
<path d="M401.645 261.237L394.062 289.452C393.362 292.055 390.66 293.613 388.056 292.913C385.453 292.213 383.895 289.511 384.595 286.907L392.178 258.692C392.878 256.089 395.58 254.531 398.183 255.231C400.787 255.931 402.344 258.633 401.645 261.237Z" fill="#E0EFF2"/>
<path d="M405.483 262.268L397.9 290.483C397.2 293.086 394.498 294.644 391.895 293.944C389.292 293.244 387.734 290.542 388.434 287.939L396.017 259.724C396.717 257.121 399.419 255.563 402.023 256.263C404.625 256.962 406.182 259.665 405.483 262.268Z" fill="#E0EFF2"/>
<path d="M409.321 263.3L401.738 291.515C401.038 294.118 398.336 295.676 395.733 294.976C393.13 294.276 391.572 291.574 392.272 288.971L399.855 260.756C400.555 258.153 403.257 256.595 405.86 257.295C408.463 257.994 410.021 260.697 409.321 263.3Z" fill="#E0EFF2"/>
<path d="M394.178 258.037L385.997 288.476C385.242 291.285 382.327 292.965 379.518 292.21C376.709 291.455 375.029 288.54 375.784 285.731L383.965 255.292C384.72 252.483 387.635 250.803 390.444 251.558C393.253 252.313 394.933 255.229 394.178 258.037Z" fill="#AAB9D8"/>
<path d="M324.637 241.011C323.74 244.348 320.276 246.344 316.94 245.447L313.809 244.605C310.472 243.708 308.476 240.244 309.373 236.908C310.27 233.571 313.734 231.575 317.07 232.472L320.201 233.314C323.538 234.211 325.534 237.675 324.637 241.011Z" fill="#C1DEFF"/>
<path d="M336.887 242.73C336.207 245.259 333.581 246.773 331.052 246.093C328.523 245.413 327.009 242.787 327.689 240.258C328.369 237.728 330.995 236.215 333.524 236.895C336.054 237.575 337.567 240.201 336.887 242.73Z" fill="#C1DEFF"/>
<path d="M410.255 262.56L406.33 277.164C405.769 279.25 403.604 280.498 401.518 279.937C401.467 279.923 401.424 279.898 401.374 279.882C400.346 281.9 398.002 283.007 395.733 282.397C395.05 282.213 394.442 281.89 393.925 281.468C393.266 281.573 392.578 281.549 391.895 281.365C391.212 281.181 390.604 280.857 390.087 280.436C389.428 280.541 388.74 280.517 388.057 280.333C387.374 280.15 386.766 279.826 386.249 279.404C385.59 279.509 384.902 279.485 384.219 279.301C383.995 279.241 383.781 279.16 383.573 279.072C382.39 279.769 380.942 280.013 379.52 279.631C377.853 279.183 376.588 277.971 375.99 276.474C374.987 276.731 373.954 276.894 372.902 276.935C371.442 276.992 369.949 276.833 368.463 276.433L364.151 275.274C363.559 275.115 362.962 274.986 362.363 274.888C358.768 274.299 355.085 274.797 351.737 276.256C351.179 276.499 350.63 276.769 350.093 277.065C347.546 278.468 344.83 279.569 342.005 280.332C340.875 280.637 339.727 280.889 338.565 281.085C336.242 281.476 333.863 281.643 331.458 281.568C330.256 281.531 329.047 281.433 327.836 281.272C326.019 281.031 324.196 280.65 322.379 280.121C321.623 279.901 320.884 279.649 320.153 279.383C319.967 279.315 319.782 279.246 319.598 279.176C318.909 278.913 318.229 278.635 317.564 278.333C317.528 278.317 317.491 278.303 317.456 278.286C316.756 277.965 316.074 277.617 315.401 277.255C315.24 277.168 315.081 277.08 314.922 276.991C314.3 276.643 313.687 276.282 313.09 275.901C313.045 275.872 312.999 275.846 312.954 275.817C312.309 275.401 311.684 274.961 311.071 274.508C310.944 274.414 310.818 274.318 310.692 274.222C310.122 273.789 309.563 273.343 309.022 272.878C308.985 272.846 308.946 272.816 308.909 272.784C308.322 272.276 307.756 271.748 307.204 271.205C307.116 271.118 307.029 271.03 306.942 270.942C306.419 270.417 305.91 269.88 305.421 269.326C305.401 269.303 305.379 269.281 305.359 269.257C304.835 268.66 304.333 268.045 303.849 267.417C303.799 267.352 303.751 267.287 303.702 267.222C303.233 266.604 302.781 265.974 302.353 265.329C302.347 265.32 302.341 265.311 302.335 265.302C301.884 264.622 301.458 263.927 301.053 263.219C301.035 263.187 301.017 263.155 300.999 263.122C298.944 259.504 297.507 255.537 296.774 251.398C295.239 259.962 296.919 268.515 300.999 275.7C301.017 275.732 301.035 275.765 301.053 275.797C301.458 276.505 301.884 277.2 302.335 277.88C302.341 277.889 302.347 277.898 302.353 277.907C302.782 278.553 303.233 279.182 303.702 279.8C303.751 279.865 303.799 279.93 303.849 279.995C304.333 280.623 304.835 281.238 305.359 281.835C305.379 281.858 305.401 281.88 305.421 281.904C305.91 282.458 306.419 282.995 306.942 283.52C307.029 283.608 307.116 283.696 307.204 283.783C307.756 284.325 308.322 284.854 308.909 285.362C308.946 285.394 308.985 285.424 309.022 285.456C309.564 285.921 310.122 286.367 310.692 286.8C310.818 286.896 310.943 286.992 311.071 287.086C311.684 287.54 312.31 287.979 312.954 288.395C312.999 288.424 313.045 288.45 313.09 288.479C313.687 288.861 314.3 289.222 314.922 289.569C315.081 289.658 315.24 289.746 315.401 289.833C316.074 290.195 316.756 290.543 317.456 290.864C317.491 290.88 317.528 290.894 317.564 290.911C318.229 291.213 318.909 291.49 319.598 291.754C319.782 291.824 319.967 291.894 320.153 291.961C320.884 292.227 321.623 292.478 322.379 292.699C324.196 293.228 326.019 293.61 327.836 293.85C329.047 294.01 330.256 294.108 331.458 294.146C333.863 294.221 336.241 294.054 338.565 293.663C339.727 293.467 340.875 293.216 342.005 292.91C344.831 292.146 347.546 291.046 350.093 289.643C350.63 289.347 351.179 289.077 351.737 288.834C355.084 287.375 358.767 286.877 362.363 287.466C362.962 287.564 363.559 287.693 364.151 287.852L368.463 289.011C369.948 289.41 371.442 289.57 372.902 289.513C373.955 289.472 374.988 289.309 375.99 289.052C376.589 290.549 377.853 291.761 379.52 292.209C380.942 292.591 382.391 292.347 383.573 291.65C383.781 291.739 383.995 291.819 384.219 291.879C384.902 292.063 385.591 292.087 386.249 291.982C386.766 292.403 387.374 292.727 388.057 292.911C388.74 293.095 389.429 293.119 390.087 293.014C390.604 293.435 391.212 293.759 391.895 293.943C392.578 294.127 393.266 294.151 393.925 294.046C394.442 294.467 395.05 294.791 395.733 294.975C398.003 295.585 400.347 294.479 401.374 292.46C401.424 292.475 401.467 292.501 401.518 292.515C403.604 293.076 405.769 291.828 406.33 289.742L412.406 267.134C412.908 265.268 411.955 263.347 410.255 262.56Z" fill="#E0EFF2"/>
<path d="M182.576 252.872C182.576 252.872 185.167 249.417 194.67 248.553C204.172 247.689 275.871 248.553 275.871 248.553C275.871 248.553 280.19 249.417 282.782 252.872C285.373 256.327 309.561 287.425 309.561 287.425C309.561 287.425 313.016 291.744 309.561 294.336C306.106 296.927 167.028 294.336 167.028 294.336C167.028 294.336 159.253 295.2 162.709 289.153C166.163 283.106 182.576 252.872 182.576 252.872Z" fill="#164454"/>
<path d="M303.513 271.013H167.027V289.153H303.513V271.013Z" fill="white"/>
<path d="M182.576 233.004C182.576 233.004 185.167 229.549 194.67 228.685C204.172 227.821 275.871 228.685 275.871 228.685C275.871 228.685 280.19 229.549 282.782 233.004C285.374 236.459 309.561 267.557 309.561 267.557C309.561 267.557 313.016 271.876 309.561 274.468C306.106 277.059 167.028 274.468 167.028 274.468C167.028 274.468 159.253 275.332 162.709 269.285C166.163 263.238 182.576 233.004 182.576 233.004Z" fill="#164454"/>
<path d="M303.513 277.059H167.027V277.923H303.513V277.059Z" fill="#DFECF0"/>
<path d="M303.513 279.651H167.027V280.515H303.513V279.651Z" fill="#DFECF0"/>
<path d="M303.513 282.242H167.027V283.106H303.513V282.242Z" fill="#DFECF0"/>
<path d="M303.513 284.834H167.027V285.698H303.513V284.834Z" fill="#DFECF0"/>
<path d="M303.513 287.425H167.027V288.289H303.513V287.425Z" fill="#DFECF0"/>
<path d="M183.098 228.973C183.098 228.973 185.506 225.763 194.334 224.96C203.163 224.157 269.779 224.96 269.779 224.96C269.779 224.96 273.792 225.763 276.2 228.973C278.608 232.183 301.081 261.077 301.081 261.077C301.081 261.077 304.291 265.09 301.081 267.498C297.871 269.906 168.651 267.498 168.651 267.498C168.651 267.498 161.428 268.301 164.638 262.682C167.848 257.064 183.098 228.973 183.098 228.973Z" fill="#66A1ED"/>
<path d="M295.463 245.828H168.651V262.683H295.463V245.828Z" fill="white"/>
<path d="M183.098 210.513C183.098 210.513 185.506 207.303 194.334 206.5C203.163 205.697 269.779 206.5 269.779 206.5C269.779 206.5 273.792 207.303 276.2 210.513C278.608 213.724 301.081 242.617 301.081 242.617C301.081 242.617 304.291 246.63 301.081 249.038C297.871 251.446 168.651 249.038 168.651 249.038C168.651 249.038 161.428 249.841 164.638 244.222C167.848 238.604 183.098 210.513 183.098 210.513Z" fill="#8CBDF7"/>
<path d="M295.463 251.446H168.651V252.249H295.463V251.446Z" fill="#DFECF0"/>
<path d="M295.463 253.854H168.651V254.657H295.463V253.854Z" fill="#DFECF0"/>
<path d="M295.463 256.262H168.651V257.065H295.463V256.262Z" fill="#DFECF0"/>
<path d="M295.463 258.669H168.651V259.472H295.463V258.669Z" fill="#DFECF0"/>
<path d="M295.463 261.077H168.651V261.88H295.463V261.077Z" fill="#DFECF0"/>
<path d="M274.904 308.233C275.828 304.699 276.412 299.492 274.565 293.597C273.684 290.785 271.049 288.888 268.103 288.951L260.89 289.105C267.76 302.144 261.404 313.267 261.404 313.267L268.66 313.113C271.594 313.049 274.162 311.072 274.904 308.233Z" fill="#FF5D7B"/>
<path d="M258.449 297.659L160.04 299.755L160.233 308.834L258.642 306.738L258.449 297.659Z" fill="#F4B031"/>
<path d="M258.268 289.164L159.859 291.261L160.04 299.754L258.449 297.657L258.268 289.164Z" fill="#E8A423"/>
<path d="M258.642 306.738L160.232 308.834L160.373 315.424L258.782 313.327L258.642 306.738Z" fill="#F4C43E"/>
<path d="M160.362 315.417L139.018 303.785L159.848 291.255C159.848 291.255 167.091 301.209 160.362 315.417Z" fill="#FACFC9"/>
<path d="M147.014 308.143C147.633 304.624 147.451 301.538 146.952 299.012L139.017 303.785L147.014 308.143Z" fill="#174859"/>
<path d="M264.751 313.195C264.751 313.195 271.107 302.072 264.237 289.033L252.543 289.282C259.413 302.321 253.057 313.444 253.057 313.444L264.751 313.195Z" fill="#174859"/>
<path d="M232.083 238.444C256.781 238.444 276.802 232.149 276.802 224.383C276.802 216.617 256.781 210.322 232.083 210.322C207.385 210.322 187.364 216.617 187.364 224.383C187.364 232.149 207.385 238.444 232.083 238.444Z" fill="#0F2F3B"/>
<path d="M232.083 211.882C256.781 211.882 276.802 206.567 276.802 200.01C276.802 193.453 256.781 188.138 232.083 188.138C207.385 188.138 187.364 193.453 187.364 200.01C187.364 206.567 207.385 211.882 232.083 211.882Z" fill="#DFECF0"/>
<path d="M276.803 200.01H187.364V224.383H276.803V200.01Z" fill="#0F2F3B"/>
<path d="M235.645 177.056C235.645 177.056 148.581 199.218 149.372 199.218C150.164 199.218 228.522 226.129 232.479 226.92C236.436 227.712 310.837 203.967 314.003 202.384C317.169 200.801 238.811 176.265 235.645 177.056Z" fill="#143E4D"/>
<path d="M314.003 202.384V200.01L149.372 196.844V199.218L314.003 202.384Z" fill="#143E4D"/>
<path d="M235.645 174.682C235.645 174.682 148.581 196.844 149.372 196.844C150.164 196.844 228.522 223.755 232.479 224.546C236.436 225.337 310.837 201.593 314.003 200.01C317.169 198.427 238.811 173.89 235.645 174.682Z" fill="#174859"/>
<path d="M231.731 197.192V200.667L151.897 200.009C151.897 200.009 149.654 200.351 148.814 203.499C147.974 206.648 149.371 221.379 149.371 221.379C149.371 221.379 146.898 224.458 145.448 220.186C143.998 215.914 145.448 200.008 145.448 200.008C145.448 200.008 146.365 196.795 150.536 197.191C154.707 197.587 231.731 197.192 231.731 197.192Z" fill="#0F2F3B"/>
<path d="M145.36 222.454C145.36 222.454 141.767 225.283 143.536 229.421C145.304 233.558 145.304 233.558 145.304 233.558L145.36 232.3L147.501 234.446L148.199 232.3L149.14 235.117C149.14 235.117 155.474 228.194 148.81 221.884C148.81 221.884 146.714 220.889 145.36 222.454Z" fill="#0F2F3B"/>
<path d="M239.551 198.741C239.551 199.789 236.969 200.638 233.785 200.638C230.6 200.638 228.019 199.789 228.019 198.741C228.019 197.693 230.601 196.844 233.785 196.844C236.969 196.844 239.551 197.693 239.551 198.741Z" fill="#F4C43E"/>
<path d="M149.426 221.883C149.426 223.159 148.391 224.194 147.115 224.194C145.839 224.194 144.804 223.159 144.804 221.883C144.804 220.607 145.839 219.572 147.115 219.572C148.391 219.572 149.426 220.607 149.426 221.883Z" fill="#F4C43E"/>
<path d="M222.895 97.25C222.895 97.25 223.148 99.3 220.562 101.917C217.975 104.534 217.003 114.626 229.295 110.934C241.587 107.243 231.982 93.994 222.895 97.25Z" fill="#CF2949"/>
<path d="M223.307 111.206C223.307 111.206 228.682 109.053 233.366 109.936C233.366 109.936 235.381 116.289 232.295 118.452C229.209 120.616 221.951 117.836 223.307 111.206Z" fill="#66A1ED"/>
<path d="M187.507 50.762L178.652 52.919C177.835 53.118 177.004 52.612 176.805 51.795C176.606 50.978 177.112 50.147 177.929 49.948L186.784 47.791C187.601 47.592 188.432 48.098 188.631 48.915C188.829 49.732 188.324 50.563 187.507 50.762Z" fill="#AAB9D8"/>
<path d="M189.505 18.409C187.611 10.635 179.635 5.93899 171.868 8.14699C164.715 10.18 160.321 17.554 161.93 24.814C162.78 28.65 165.102 31.761 168.16 33.703C169.773 34.727 170.95 36.31 171.402 38.167L171.813 39.856C172.569 42.959 175.697 44.861 178.799 44.105L183.32 43.004C186.423 42.248 188.325 39.12 187.569 36.018L187.157 34.329C186.706 32.479 187.014 30.535 187.974 28.891C189.759 25.836 190.408 22.116 189.505 18.409Z" fill="#FFD96E"/>
<path d="M187.121 13.324C187.602 14.229 187.981 15.206 188.235 16.248C189.033 19.524 188.46 22.812 186.884 25.511C186.036 26.964 185.764 28.683 186.162 30.318L186.526 31.811C187.194 34.553 185.512 37.318 182.77 37.986L178.774 38.959C176.032 39.627 173.267 37.946 172.599 35.203L172.235 33.71C171.835 32.069 170.795 30.67 169.369 29.765C166.666 28.048 164.613 25.299 163.862 21.908C162.951 17.793 164.223 13.639 166.919 10.712C162.843 13.998 160.739 19.435 161.93 24.812C162.78 28.648 165.102 31.759 168.16 33.701C169.773 34.725 170.95 36.308 171.402 38.165L171.813 39.854C172.569 42.957 175.697 44.859 178.799 44.103L183.32 43.002C186.423 42.246 188.325 39.118 187.569 36.016L187.157 34.327C186.706 32.477 187.014 30.533 187.974 28.889C189.757 25.836 190.406 22.115 189.503 18.409C189.043 16.512 188.216 14.799 187.121 13.324Z" fill="#F4C43E"/>
<path d="M177.545 43.071L173.486 26.409C173.486 26.409 174.417 28.223 175.694 27.042C176.971 25.862 173.718 22.877 174.208 25.155C174.698 27.433 178.697 28.13 178.974 25.252C179.251 22.374 175.264 22.868 177.585 25.572C179.906 28.276 180.821 24.622 180.821 24.622L184.88 41.284" stroke="#FFF8E6" stroke-width="0.5581" stroke-miterlimit="10" stroke-linejoin="round"/>
<path d="M187.14 44.482L176.089 47.174C175.069 47.422 174.032 46.791 173.783 45.772C173.535 44.752 174.166 43.715 175.185 43.466L186.236 40.774C187.256 40.526 188.293 41.157 188.542 42.176C188.791 43.196 188.16 44.233 187.14 44.482Z" fill="#E0EFF2"/>
<path d="M187.506 45.985L176.455 48.677C175.435 48.925 174.398 48.294 174.15 47.275C173.902 46.255 174.533 45.218 175.552 44.969L186.603 42.277C187.623 42.029 188.66 42.66 188.908 43.679C189.157 44.699 188.526 45.736 187.506 45.985Z" fill="#E0EFF2"/>
<path d="M187.872 47.488L176.821 50.18C175.801 50.428 174.764 49.797 174.515 48.778C174.267 47.758 174.898 46.721 175.917 46.472L186.968 43.78C187.988 43.532 189.025 44.163 189.273 45.182C189.523 46.202 188.892 47.24 187.872 47.488Z" fill="#E0EFF2"/>
<path d="M188.239 48.992L177.188 51.684C176.168 51.932 175.131 51.301 174.882 50.282C174.634 49.262 175.265 48.225 176.284 47.976L187.335 45.284C188.355 45.036 189.392 45.667 189.641 46.686C189.889 47.706 189.258 48.743 188.239 48.992Z" fill="#E0EFF2"/>
<path d="M187.201 42.837L175.279 45.741C174.179 46.009 173.06 45.328 172.792 44.228C172.524 43.128 173.205 42.009 174.305 41.741L186.227 38.837C187.327 38.569 188.446 39.25 188.714 40.35C188.982 41.45 188.301 42.569 187.201 42.837Z" fill="#AAB9D8"/>
<path d="M179.998 15.911C178.691 16.229 177.361 15.42 177.043 14.114L176.744 12.888C176.426 11.581 177.235 10.251 178.541 9.933C179.848 9.615 181.178 10.423 181.496 11.73L181.795 12.956C182.113 14.263 181.304 15.593 179.998 15.911Z" fill="#FFE69E"/>
<path d="M181.704 20.415C180.713 20.656 179.705 20.043 179.464 19.053C179.223 18.062 179.836 17.054 180.827 16.813C181.818 16.572 182.826 17.185 183.067 18.176C183.307 19.165 182.694 20.173 181.704 20.415Z" fill="#FFE69E"/>
<path d="M188.666 49.172L182.946 50.565C182.129 50.764 181.298 50.258 181.099 49.441C181.094 49.421 181.095 49.401 181.091 49.381C180.21 49.408 179.393 48.815 179.177 47.926C179.112 47.659 179.109 47.39 179.156 47.135C178.997 46.93 178.876 46.69 178.811 46.423C178.746 46.156 178.743 45.887 178.79 45.632C178.631 45.427 178.51 45.187 178.445 44.92C178.38 44.652 178.377 44.384 178.424 44.129C178.265 43.924 178.144 43.684 178.079 43.417C178.058 43.329 178.045 43.241 178.036 43.153C177.577 42.88 177.222 42.431 177.087 41.874C176.928 41.221 177.105 40.562 177.504 40.078C177.229 39.784 176.98 39.462 176.769 39.11C176.476 38.622 176.251 38.083 176.109 37.501L175.698 35.812C175.641 35.58 175.574 35.352 175.495 35.129C175.023 33.791 174.164 32.627 173.039 31.758C172.852 31.613 172.657 31.476 172.455 31.348C171.499 30.741 170.615 30.02 169.826 29.198C169.51 28.869 169.209 28.525 168.925 28.165C168.357 27.445 167.855 26.664 167.43 25.829C167.218 25.412 167.025 24.981 166.853 24.537C166.595 23.872 166.384 23.178 166.224 22.459C166.158 22.16 166.105 21.86 166.059 21.561C166.047 21.485 166.036 21.409 166.026 21.333C165.987 21.049 165.954 20.765 165.933 20.481C165.932 20.466 165.93 20.45 165.929 20.435C165.908 20.136 165.899 19.838 165.896 19.54C165.895 19.469 165.896 19.398 165.896 19.327C165.898 19.049 165.907 18.773 165.925 18.498C165.926 18.477 165.927 18.456 165.928 18.436C165.949 18.138 165.982 17.842 166.022 17.548C166.03 17.487 166.04 17.426 166.049 17.365C166.09 17.089 166.138 16.815 166.195 16.543C166.199 16.524 166.202 16.506 166.206 16.487C166.269 16.192 166.344 15.899 166.426 15.609C166.439 15.563 166.453 15.517 166.467 15.47C166.548 15.193 166.636 14.919 166.734 14.648C166.738 14.637 166.742 14.625 166.746 14.614C166.852 14.323 166.968 14.037 167.092 13.754C167.105 13.725 167.118 13.696 167.131 13.667C167.254 13.391 167.385 13.119 167.525 12.852C167.527 12.848 167.529 12.845 167.531 12.841C167.679 12.56 167.836 12.284 168.002 12.014C168.01 12.002 168.017 11.99 168.025 11.978C168.876 10.599 169.961 9.366 171.236 8.341C168.025 9.42 165.42 11.594 163.731 14.332C163.724 14.344 163.716 14.356 163.708 14.368C163.542 14.639 163.385 14.914 163.237 15.196C163.235 15.2 163.233 15.203 163.231 15.207C163.091 15.474 162.96 15.746 162.837 16.022C162.824 16.051 162.811 16.08 162.798 16.109C162.674 16.392 162.558 16.678 162.452 16.969C162.448 16.98 162.444 16.992 162.44 17.003C162.342 17.274 162.254 17.548 162.173 17.825C162.159 17.871 162.145 17.917 162.132 17.964C162.05 18.254 161.976 18.546 161.912 18.842C161.908 18.861 161.905 18.879 161.901 18.898C161.844 19.17 161.796 19.444 161.755 19.72C161.746 19.781 161.737 19.842 161.728 19.903C161.688 20.197 161.655 20.493 161.633 20.791C161.632 20.812 161.631 20.832 161.63 20.853C161.612 21.128 161.603 21.405 161.601 21.683C161.601 21.754 161.6 21.825 161.601 21.896C161.603 22.193 161.612 22.491 161.634 22.791C161.635 22.806 161.637 22.821 161.638 22.837C161.659 23.121 161.692 23.405 161.731 23.689C161.742 23.765 161.752 23.841 161.764 23.917C161.81 24.216 161.863 24.516 161.929 24.815C162.088 25.534 162.299 26.228 162.557 26.893C162.729 27.337 162.922 27.768 163.134 28.185C163.558 29.02 164.061 29.801 164.629 30.521C164.913 30.881 165.214 31.226 165.53 31.554C166.32 32.376 167.203 33.097 168.159 33.704C168.361 33.832 168.555 33.969 168.743 34.114C169.868 34.984 170.727 36.148 171.199 37.485C171.278 37.708 171.345 37.936 171.402 38.168L171.813 39.857C171.955 40.439 172.18 40.978 172.473 41.466C172.684 41.818 172.933 42.14 173.208 42.434C172.809 42.919 172.632 43.577 172.791 44.23C172.927 44.787 173.281 45.236 173.74 45.509C173.749 45.597 173.761 45.684 173.783 45.772C173.848 46.039 173.969 46.279 174.128 46.484C174.081 46.739 174.084 47.008 174.149 47.275C174.214 47.543 174.335 47.782 174.494 47.987C174.447 48.242 174.45 48.511 174.515 48.778C174.58 49.045 174.701 49.285 174.86 49.49C174.813 49.745 174.816 50.014 174.881 50.281C175.098 51.17 175.914 51.763 176.795 51.736C176.799 51.756 176.798 51.776 176.803 51.796C177.002 52.613 177.833 53.119 178.65 52.92L187.505 50.763C188.238 50.584 188.716 49.899 188.666 49.172Z" fill="#E0EFF2"/>
<path d="M227.624 178.639C227.624 178.639 224.075 183.718 224.957 184.602C225.84 185.486 229.64 182.55 230.721 181.113C231.801 179.676 230.575 177.648 230.575 177.648L227.624 178.639Z" fill="#FF5D7B"/>
<path d="M225.545 151.673C225.545 151.673 226.517 164.454 226.934 166.011C227.351 167.568 227.212 178.124 227.767 179.374C228.323 180.624 230.823 178.679 230.823 177.846C230.823 177.013 232.351 169.956 232.49 168.206C232.629 166.456 234.573 156.456 234.712 153.678C234.851 150.901 228.74 147.027 225.545 151.673Z" fill="#FACFC9"/>
<path d="M253.888 167.514C253.888 167.514 256.539 173.115 257.744 172.786C258.949 172.458 258.284 167.702 257.572 166.051C256.86 164.4 254.491 164.46 254.491 164.46L253.888 167.514Z" fill="#FF5D7B"/>
<path d="M244.165 146.248C244.116 150.84 244.133 153.793 245.629 158.027C246.332 160.017 254.176 163.8 255.696 165.598C257.216 167.396 255.501 168.197 253.261 167.743C251.021 167.289 244.112 163.901 241.624 162.144C239.631 160.737 235.925 155.064 235.979 150.213C236.033 145.362 240.676 143.675 244.165 146.248Z" fill="#FACFC9"/>
<path d="M223.438 111.725C223.438 111.725 214.107 109.751 212.889 108.208C211.671 106.664 206.156 99.457 204.381 99.584C202.606 99.712 202.09 100.691 202.111 101.863C202.131 103.036 209.532 112.014 210.268 112.776C211.004 113.538 220.858 119.738 222.216 119.305C223.573 118.873 225.459 112.187 223.438 111.725Z" fill="#174859"/>
<path d="M249.209 133.641C249.209 133.641 248.238 136.857 249.354 137.433C250.47 138.009 251.036 137.369 251.036 137.369C251.036 137.369 252.877 138.981 253.543 137.548C254.209 136.115 253.415 132.952 250.848 132.431C250.848 132.431 249.487 132.425 249.209 133.641Z" fill="#FACFC9"/>
<path d="M233.566 118.085C233.566 118.085 242.267 121.992 243.13 123.759C243.993 125.526 247.855 133.738 249.616 133.99C251.377 134.242 252.089 133.394 252.318 132.244C252.547 131.094 247.217 120.751 246.66 119.85C246.103 118.949 237.786 110.802 236.368 110.937C234.95 111.071 231.688 117.205 233.566 118.085Z" fill="#174859"/>
<path d="M220.562 113.487C220.562 113.487 221.162 125.633 223.14 127.994C223.14 127.994 223.921 129.747 223.937 134.304C223.952 138.86 221.561 146.533 224.221 154.292C224.221 154.292 247.099 156.056 247.194 147.931C247.255 142.713 243.766 135.888 240.645 132.098C237.971 128.851 239.344 127.679 238.469 123.691C238.464 123.669 238.46 123.648 238.455 123.627C238.002 121.519 237.619 112.572 236.914 111.423C236.209 110.274 233.366 109.936 233.366 109.936C233.366 109.936 231.266 116.592 229.154 116.49C227.041 116.388 223.307 111.206 223.307 111.206C223.307 111.206 221.079 111.669 220.562 113.487Z" fill="#174859"/>
<path d="M203.994 99.809C203.994 99.809 205.256 96.142 203.994 95.43C202.732 94.717 202.051 95.43 202.051 95.43C202.051 95.43 199.999 93.49 199.168 95.113C198.336 96.737 199.114 100.419 202.051 101.132C202.051 101.132 203.621 101.199 203.994 99.809Z" fill="#FACFC9"/>
<path d="M227.25 111.012V109.049C227.25 109.049 223.088 108.886 222.844 105.874C222.6 102.862 222.844 104.353 222.844 104.353C222.844 104.353 221.379 103.834 221.379 103.32C221.379 102.806 223.2 101.259 223.2 101.259C223.2 101.259 224.147 95.21 228.868 94.965C233.59 94.721 235.543 98.71 235.381 101.966C235.218 105.222 232.857 108.234 231.881 108.397C230.905 108.56 231.555 111.012 231.555 111.012C231.555 111.012 228.636 113.201 227.25 111.012Z" fill="#FACFC9"/>
<path d="M228.057 92.523C228.057 92.523 220.929 93.773 222.63 96.84C224.331 99.908 229.301 100.135 229.301 100.135C229.301 100.135 229.447 102.975 231.207 103.771C231.207 103.771 232.794 107.975 229.301 112.406C225.809 116.837 236.413 118.655 238.382 108.543C240.351 98.431 236.715 94.887 233.534 94.159C230.353 93.432 229.671 94.159 229.671 94.159C229.671 94.159 229.005 92.313 228.057 92.523Z" fill="#FF5D7B"/>
<path d="M181.404 52.249C181.404 52.249 184.316 89.159 201.449 97.119C218.581 105.078 221.652 117.036 211.372 122.575" stroke="#174859" stroke-width="0.816" stroke-miterlimit="10"/>
<path d="M171.741 171.137C171.047 171.808 170.629 172.712 170.486 173.666C170.029 176.707 168.695 185.154 167.962 185.284C167.068 185.443 156.683 190.05 156.683 190.326C156.683 190.601 156.936 193.077 160.798 192.252C164.661 191.427 171.725 188.607 172.25 187.919C172.776 187.231 174.969 176.64 174.594 174.439C174.277 172.569 173.596 169.344 171.741 171.137Z" fill="#CC3853"/>
<path d="M154.683 210.149C154.683 210.149 154.011 213.727 153.308 214.26C152.605 214.792 150.777 214.16 150.706 212.824C150.636 211.488 152.042 207.41 152.042 207.41C152.042 207.41 154.089 207.405 154.683 210.149Z" fill="#FACFC9"/>
<path d="M174.56 190.736C174.56 190.736 156.088 189.772 154.495 192.207C152.901 194.642 153.089 197.206 160.214 196.987C167.339 196.769 175.115 197.966 176.055 195.413C176.995 192.861 174.56 190.736 174.56 190.736Z" fill="#5384C2"/>
<path d="M155.801 192.03C155.801 192.03 154.575 191.598 153.758 194.314C152.941 197.03 149.981 210.017 150.238 210.298C150.495 210.579 153.701 212.173 155.801 211.892C155.801 211.892 158.558 199.804 159.026 197.739C159.496 195.673 158.576 191.668 155.801 192.03Z" fill="#5384C2"/>
<path d="M154.163 213.124C154.163 213.124 154.35 215.258 152.513 217.118C150.676 218.978 141.985 213.519 141.632 210.723C141.279 207.927 150.455 211.158 150.455 211.158C150.455 211.158 151.626 213.145 154.163 213.124Z" fill="#FF5D7B"/>
<path d="M147.895 212.181C144.723 209.573 142.255 209.8 142.065 209.837C141.746 210.016 141.579 210.3 141.632 210.723C141.96 213.318 149.464 218.203 152.012 217.406C153.346 216.321 151.077 214.796 147.895 212.181Z" fill="#E03D5B"/>
<path d="M178.327 168.082C181.921 167.095 185.548 169.604 185.923 173.312C186.605 180.069 187.035 191.486 182.788 195.262C176.614 200.751 169.031 198.998 169.031 198.998C169.031 198.998 171.868 175.622 171.728 172.027C171.686 170.978 173.977 169.276 178.327 168.082Z" fill="#FF5D7B"/>
<path d="M163.173 213.892C163.173 213.892 162.501 217.47 161.798 218.002C161.095 218.535 159.267 217.902 159.197 216.566C159.127 215.23 160.533 211.152 160.533 211.152C160.533 211.152 162.579 211.147 163.173 213.892Z" fill="#FACFC9"/>
<path d="M183.003 194.351C183.003 194.351 183.586 201.355 176.161 201.074C168.736 200.793 162.361 201.204 162.361 199.733C162.361 198.262 160.872 194.763 168.742 193.794C176.611 192.824 183.003 194.351 183.003 194.351Z" fill="#66A1ED"/>
<path d="M164.292 194.993C164.292 194.993 163.066 194.561 162.249 197.276C161.432 199.992 158.472 212.979 158.729 213.261C158.986 213.542 162.192 215.136 164.292 214.855C164.292 214.855 167.049 202.767 167.517 200.702C167.986 198.636 167.066 194.631 164.292 194.993Z" fill="#66A1ED"/>
<path d="M162.773 216.995C162.773 216.995 162.96 219.129 161.123 220.989C159.286 222.85 150.595 217.39 150.242 214.594C149.889 211.798 159.065 215.029 159.065 215.029C159.065 215.029 160.236 217.015 162.773 216.995Z" fill="#FF5D7B"/>
<path d="M156.505 216.051C153.333 213.444 150.865 213.671 150.675 213.707C150.356 213.886 150.189 214.17 150.242 214.593C150.57 217.188 158.074 222.073 160.622 221.276C161.956 220.192 159.687 218.667 156.505 216.051Z" fill="#E03D5B"/>
<path d="M175.684 170.366L174.773 168.125C174.773 168.125 169.947 169.871 168.27 166.546C166.593 163.222 166.534 161.114 166.534 161.114C166.534 161.114 164.807 153.77 170.082 151.3C175.357 148.83 179.439 152.476 180.764 156.268C182.089 160.06 180.793 164.594 179.754 165.233C178.715 165.872 180.596 168.368 180.596 168.368C180.596 168.368 178.281 172.221 175.684 170.366Z" fill="#FACFC9"/>
<path d="M174.841 155.389C174.841 155.389 168.789 159.034 165.212 157.727C161.636 156.42 161.98 152.569 163.63 151.537C165.281 150.505 165.831 151.537 165.831 151.537C165.831 151.537 167.784 150.084 168.307 151.079C168.307 151.079 173.809 148.993 174.841 149.474C175.873 149.955 175.873 149.955 175.873 149.955C175.873 149.955 174.566 148.786 175.185 148.648C175.804 148.51 176.629 149.473 176.629 149.473C176.629 149.473 178.967 149.335 178.761 149.817C178.555 150.298 177.693 150.493 177.693 150.493C177.693 150.493 180.937 152.018 181.328 156.97C181.718 161.922 181.328 162.885 181.328 162.885C181.328 162.885 181.199 167.58 179.464 166.092C177.729 164.604 179.586 162.403 179.586 161.922C179.586 161.441 180.274 159.24 179.38 158.415C178.486 157.59 177.693 159.103 177.693 159.103C177.693 159.103 178.485 161.304 178.142 161.51C177.798 161.716 176.766 161.369 176.629 160.683C176.491 159.997 176.423 158.553 176.285 158.278C176.147 158.003 174.909 157.453 174.772 157.109C174.634 156.764 174.841 155.389 174.841 155.389Z" fill="#174859"/>
<path d="M169.037 195.897L180.083 192.42L167.922 189.295L153.753 192.071L169.037 195.897Z" fill="#AAB9D8"/>
<path d="M182.406 170.871C182.406 170.871 180.618 183.407 179.724 183.565C178.83 183.724 168.445 188.332 168.445 188.607C168.445 188.882 168.698 191.358 172.56 190.533C176.422 189.708 183.487 186.888 184.012 186.2C184.538 185.512 186.731 174.921 186.356 172.72C185.982 170.52 182.591 169.617 182.406 170.871Z" fill="#E03D5B"/>
<path d="M169.03 188.745C169.03 188.745 165.564 188.593 164.975 189.872C164.387 191.152 165.246 192.469 167.002 192.42C168.758 192.371 171.057 190.808 170.851 190.258C170.645 189.708 169.615 188.882 169.03 188.745Z" fill="#FACFC9"/>
<path d="M151.238 178.772L167.975 182.43L169.037 195.897L153.753 192.071L151.238 178.772Z" fill="#E0EFF2"/>
<path d="M40.423 245.868L38.31 247.709C38.31 247.709 35.208 247.787 34.123 248.097C33.038 248.407 31.021 249.57 31.332 249.958C31.332 249.958 29.859 251.509 30.247 251.819C30.247 251.819 30.48 252.904 31.022 252.904C31.022 252.904 31.487 253.679 32.495 253.524C32.495 253.524 34.078 252.361 35.302 252.361C36.527 252.361 37.225 252.439 37.225 252.439C37.225 252.439 35.442 252.79 34.899 253.545C34.356 254.3 34.356 254.765 34.666 254.92C34.976 255.075 36.294 253.989 37.38 253.989C38.466 253.989 40.443 252.671 40.423 251.508C40.404 250.345 42.807 248.639 43.428 247.709C44.048 246.779 41.551 244.884 40.423 245.868Z" fill="#FACFC9"/>
<path d="M78.854 238.574C78.854 238.574 81.208 246.611 82.549 246.986C83.89 247.361 87.924 236.737 87.924 236.737C87.924 236.737 88.818 235.367 92.096 236.737C95.374 238.107 85.231 254.744 83.741 254.777C82.251 254.81 74.194 250.911 74.801 247.935C75.409 244.96 76.786 238.594 78.854 238.574Z" fill="#E8A423"/>
<path d="M65.997 303.702C65.997 303.702 65.538 306.813 66.317 307.946C67.096 309.079 68.185 308.49 68.54 307.333C68.895 306.176 68.86 302.912 68.86 302.912C68.86 302.912 66.864 302.307 65.997 303.702Z" fill="#FACFC9"/>
<path d="M69.228 306.474C69.706 306.289 70.226 306.248 70.708 306.425C72.258 306.993 75.187 308.041 76.302 308.264C77.849 308.573 80.448 309.749 80.571 311.234C80.695 312.719 70.68 312.038 69.16 311.977C67.64 311.915 65.289 312.163 65.165 311.173C65.082 310.507 65.11 308.384 65.138 307.066C65.149 306.525 65.662 306.14 66.187 306.275C67.123 306.514 68.475 306.766 69.228 306.474Z" fill="#5384C2"/>
<path d="M46.171 302.912C46.171 302.912 44.901 305.789 45.35 307.089C45.8 308.388 47.006 308.11 47.656 307.089C48.306 306.068 49.141 302.912 49.141 302.912C49.141 302.912 47.377 301.798 46.171 302.912Z" fill="#FACFC9"/>
<path d="M47.84 306.156C48.318 305.971 48.839 305.93 49.32 306.107C50.87 306.675 53.799 307.723 54.914 307.946C56.461 308.255 59.06 309.431 59.183 310.916C59.307 312.401 49.292 311.72 47.772 311.658C46.252 311.596 43.901 311.844 43.777 310.854C43.694 310.188 43.723 308.065 43.75 306.747C43.761 306.206 44.274 305.821 44.799 305.956C45.735 306.196 47.088 306.448 47.84 306.156Z" fill="#5384C2"/>
<path d="M52.369 256.792C52.369 256.792 53.259 262.485 55.612 264.644C55.612 264.644 69.21 279.604 69.914 282.491C70.619 285.378 65.504 304.292 65.452 304.493C65.399 304.694 69.205 304.899 69.598 303.109C69.992 301.318 76.2 281.845 75.766 280.419C75.332 278.993 64.085 262.095 64.085 262.095C64.085 262.095 64.639 256.61 63.561 255.027C62.483 253.445 52.369 256.792 52.369 256.792Z" fill="#E03D5B"/>
<path d="M64.036 255.584C64.036 255.584 52.458 256.229 52.369 257.989L54.762 287.47L45.35 303.588C45.35 303.588 46.82 305.347 49.048 304.495C51.294 301.587 60.62 289.994 61.428 287.72C62.236 285.446 60.29 265.383 60.29 265.383C60.29 265.383 64.092 263.085 64.16 261.14C64.227 259.196 64.036 255.584 64.036 255.584Z" fill="#FF5D7B"/>
<path d="M73.027 233.038C73.027 233.038 64.623 230.589 63.421 232.466C62.219 234.342 53.719 255.82 54.982 258.033C56.245 260.246 62.739 264.038 64.349 262.843C65.959 261.648 78.249 242.717 78.933 240.961C79.617 239.205 78 236.054 76.466 235.124C74.932 234.193 73.027 233.038 73.027 233.038Z" fill="#ABB5F3"/>
<path d="M66.471 248.095C66.471 248.095 61.942 260.327 59.54 262.561C59.54 262.561 54.687 263.091 51.72 257.442C51.72 257.442 56.987 245.168 57.632 243.388C58.277 241.608 62.431 232.405 62.431 232.405C62.431 232.405 63.229 229.339 73.028 233.038L66.471 248.095Z" fill="#F4B031"/>
<path d="M67.619 250.881C67.619 250.881 64.226 262.277 64.348 262.842C64.47 263.407 65.065 264.491 66.261 265.383C67.457 266.275 74.8 247.935 74.8 247.935C74.8 247.935 79.656 241.853 79.322 240.474C78.989 239.095 79.16 236.756 79.16 236.756C79.16 236.756 76.726 236.296 74.763 239.772C72.801 243.25 67.619 250.881 67.619 250.881Z" fill="#F4B031"/>
<path d="M76.894 236.578L77.84 234.252C77.84 234.252 82.849 236.064 84.589 232.614C86.329 229.164 86.391 226.976 86.391 226.976C86.391 226.976 88.184 219.354 82.708 216.79C77.233 214.226 72.997 218.01 71.621 221.946C70.245 225.882 71.591 230.587 72.67 231.25C73.749 231.913 71.796 234.504 71.796 234.504C71.796 234.504 74.199 238.504 76.894 236.578Z" fill="#FACFC9"/>
<path d="M77.769 221.034C77.769 221.034 84.05 224.817 87.762 223.461C91.474 222.105 91.117 218.107 89.404 217.037C87.691 215.966 87.12 217.037 87.12 217.037C87.12 217.037 85.093 215.529 84.55 216.561C84.55 216.561 78.84 214.396 77.769 214.895C76.698 215.395 76.698 215.395 76.698 215.395C76.698 215.395 78.054 214.181 77.412 214.039C76.77 213.896 75.913 214.896 75.913 214.896C75.913 214.896 73.486 214.753 73.7 215.253C73.914 215.753 74.808 215.955 74.808 215.955C74.808 215.955 71.441 217.538 71.036 222.677C70.631 227.816 71.036 228.816 71.036 228.816C71.036 228.816 71.17 233.689 72.971 232.145C74.771 230.601 72.844 228.316 72.844 227.817C72.844 227.317 72.13 225.033 73.058 224.177C73.986 223.32 74.808 224.891 74.808 224.891C74.808 224.891 73.986 227.175 74.343 227.389C74.7 227.603 75.771 227.242 75.913 226.53C76.056 225.818 76.127 224.319 76.27 224.034C76.413 223.749 77.698 223.177 77.84 222.821C77.984 222.462 77.769 221.034 77.769 221.034Z" fill="#174859"/>
<path d="M73.603 232.087C73.603 232.087 69.635 231.859 69.475 232.193C69.315 232.527 70.491 234.61 70.491 234.61C70.491 234.61 65.843 241.139 66.096 244.472C66.349 247.805 66.053 249.651 66.053 249.651C66.053 249.651 73.926 233.295 73.603 232.087Z" fill="#E8A423"/>
<path d="M77.407 234.459C77.407 234.459 79.921 237.537 79.744 237.863C79.568 238.189 77.191 238.459 77.191 238.459C77.191 238.459 74.634 246.055 71.787 247.806C68.94 249.557 67.619 250.881 67.619 250.881C67.619 250.881 76.239 234.907 77.407 234.459Z" fill="#E8A423"/>
<path d="M63.399 231.787C63.399 231.787 50.342 234.574 49.113 235.51C47.884 236.446 38.497 245.497 38.497 245.497C38.497 245.497 39.614 249.776 42.855 249.033C46.095 248.29 49.655 241.139 50.948 241.139C52.241 241.139 62.969 238.01 64.533 237.451C66.097 236.893 65.601 231.305 63.399 231.787Z" fill="#F4C43E"/>
<path d="M89.226 238.347L89.77 236.383C89.77 236.383 88.445 235.055 88.445 234.558C88.445 234.061 89.107 231.494 89.77 231.494C90.432 231.494 93.496 229.755 94.076 231.08C94.656 232.405 94.076 232.405 94.076 232.405C94.076 232.405 95.088 233.647 94.334 234.558C94.334 234.558 94.242 235.89 93.993 236.383C93.745 236.876 92.254 237.208 92.254 237.208L91.73 238.927C91.73 238.927 89.682 240.5 89.226 238.347Z" fill="#FACFC9"/>
<path d="M91.529 232.446C91.176 232.446 90.887 232.157 90.887 231.803V226.641C90.887 226.288 91.176 225.999 91.529 225.999C91.882 225.999 92.172 226.288 92.172 226.641V231.803C92.172 232.157 91.883 232.446 91.529 232.446Z" fill="#174859"/>
<path d="M91.529 229.714C93.4266 229.714 94.965 228.176 94.965 226.278C94.965 224.38 93.4266 222.842 91.529 222.842C89.6313 222.842 88.093 224.38 88.093 226.278C88.093 228.176 89.6313 229.714 91.529 229.714Z" fill="#174859"/>
<path d="M91.529 228.708C92.8711 228.708 93.959 227.62 93.959 226.278C93.959 224.936 92.8711 223.848 91.529 223.848C90.1869 223.848 89.099 224.936 89.099 226.278C89.099 227.62 90.1869 228.708 91.529 228.708Z" fill="#C6E6FD"/>
<path d="M320.911 239.738C320.911 239.738 323.18 248.704 325.469 250.161C327.758 251.618 335.648 246.386 335.648 246.386C335.648 246.386 336.029 243.654 336.757 243.29C337.486 242.926 338.669 244.019 338.669 244.019C338.669 244.019 342.767 240.923 343.86 240.832C344.953 240.741 341.72 243.837 341.72 243.837C341.72 243.837 341.856 246.795 340.763 247.592C339.67 248.39 336.938 248.845 336.938 248.845C336.938 248.845 330.186 255.812 325.372 255.539C320.558 255.266 314.171 243.473 314.171 243.473C314.171 243.473 317.451 238.463 320.911 239.738Z" fill="#E0A880"/>
<path d="M332.441 291.137L333.875 294.274L337.818 293.288L334.592 288.807C334.592 288.807 331.007 288 332.441 291.137Z" fill="#F8C29C"/>
<path d="M312.13 258.389C312.13 258.389 323.924 261.339 328.123 267.59C332.321 273.841 337.415 289.494 337.415 289.494L331.439 292.72L321.042 273.813L307.323 266.169C307.323 266.169 308.029 257.07 312.13 258.389Z" fill="#E8A423"/>
<path d="M335.074 245.492L334.214 249.442L342.676 244.131L343.362 240.252L335.074 245.492Z" fill="white"/>
<path d="M312.727 237.443C312.727 237.443 316.297 232.518 319.272 234.881C322.247 237.244 323.239 241.31 323.239 241.31L316 246.566C316 246.566 311.834 245.574 312.727 237.443Z" fill="#E03D5B"/>
<path d="M317.421 230.373C317.421 230.373 319.466 230.273 319.598 228.846C319.73 227.419 320.506 219.793 328.444 221.224C334.171 222.256 334.213 227.569 334.213 228.891C334.213 230.213 332.229 235.12 332.493 236.237C332.757 237.354 330.377 236.237 330.377 236.237C330.377 236.237 327.961 239.409 327.168 239.625C326.375 239.841 322.368 237.027 322.242 235.616C322.029 233.242 319.73 236.819 318.672 236.482C317.615 236.145 315.773 232.534 317.421 230.373Z" fill="#F8C29C"/>
<path d="M317.421 230.373C317.421 230.373 302.989 231.163 300.213 245.199C297.436 259.235 300.213 267.75 300.213 267.75C300.213 267.75 308.675 268.303 312.642 267.035C316.609 265.767 310.21 255.796 317.747 248.656C323.757 242.962 317.421 230.373 317.421 230.373Z" fill="#FF5D7B"/>
<path d="M318.951 242.508C318.951 242.508 321.22 251.474 323.509 252.931C325.798 254.388 333.687 249.156 333.687 249.156C333.687 249.156 334.067 246.424 334.796 246.06C335.525 245.696 336.708 246.788 336.708 246.788C336.708 246.788 340.806 243.692 341.899 243.601C342.992 243.51 339.759 246.606 339.759 246.606C339.759 246.606 339.895 249.564 338.802 250.362C337.709 251.16 334.977 251.615 334.977 251.615C334.977 251.615 328.225 258.582 323.411 258.309C318.597 258.036 312.21 246.242 312.21 246.242C312.21 246.242 315.49 241.233 318.951 242.508Z" fill="#F8C29C"/>
<path d="M309.039 238.905C309.039 238.905 312.609 233.98 315.584 236.343C318.559 238.707 319.551 242.772 319.551 242.772L312.312 248.028C312.312 248.028 308.146 247.037 309.039 238.905Z" fill="#E03D5B"/>
<path d="M326.066 294.024L327.5 297.161L331.443 296.175L328.217 291.694C328.217 291.694 324.632 290.887 326.066 294.024Z" fill="#F8C29C"/>
<path d="M305.756 261.276C305.756 261.276 317.55 264.226 321.748 270.477C325.946 276.728 331.04 292.381 331.04 292.381L325.064 295.607L314.668 276.7L300.949 269.056C300.949 269.056 299.347 267.09 299.791 265.334C300.408 262.892 303.37 260.509 305.756 261.276Z" fill="#F4C43E"/>
<path d="M326.978 296.593C326.978 296.593 329.666 296.799 331.444 295.718C331.444 295.718 338.532 299.874 340.059 300.456C341.587 301.038 341.441 302.929 340.059 303.002C338.677 303.075 327.572 301.984 326.978 301.329C326.384 300.674 326.116 297.313 326.978 296.593Z" fill="#164454"/>
<path d="M333.216 292.974C333.216 292.974 335.904 293.18 337.682 292.099C337.682 292.099 344.77 296.255 346.297 296.837C347.824 297.419 347.679 299.31 346.297 299.383C344.915 299.456 333.809 298.365 333.216 297.71C332.623 297.056 332.356 293.694 333.216 292.974Z" fill="#164454"/>
<path d="M318.91 229.916C318.91 229.916 317.946 230.73 318.528 227.332C319.11 223.934 322.02 220.079 322.82 220.152C322.82 220.152 321.191 219.383 322.078 219.077C322.965 218.77 323.911 219.321 323.911 219.321C323.911 219.321 325.722 217.633 326.104 218.367C326.486 219.101 325.489 219.631 325.489 219.631C325.489 219.631 328.203 218.331 330.385 220.516C332.567 222.7 335.477 223.498 335.477 223.498C335.477 223.498 337.607 223.136 337.805 225.389C338.003 227.642 335.987 226.696 335.987 226.696C335.987 226.696 338.969 228.504 336.933 230.002C334.896 231.499 334.096 230.941 332.496 230.456C330.896 229.972 330.459 229.039 329.659 228.887C328.859 228.735 327.171 228.89 327.171 228.89C327.171 228.89 326.123 231.645 325.491 231.499C324.859 231.354 324.277 231.219 324.641 230.341C325.005 229.463 325.833 228.226 325.491 227.644C325.149 227.062 322.576 227.115 322.372 229.38C322.168 231.645 320.139 232.667 319.553 232.229C318.964 231.79 318.91 229.916 318.91 229.916Z" fill="#164454"/>
<defs>
<linearGradient id="paint0_linear_11_895" x1="358.086" y1="93.9854" x2="385.768" y2="98.6712" gradientUnits="userSpaceOnUse">
<stop offset="0.191" stop-color="#47A2E9"/>
<stop offset="0.6581" stop-color="#8ABCF7"/>
</linearGradient>
<linearGradient id="paint1_linear_11_895" x1="368.234" y1="161.781" x2="368.235" y2="109.792" gradientUnits="userSpaceOnUse">
<stop offset="0.2435" stop-color="#49687E"/>
<stop offset="1" stop-color="#DFF1FD"/>
</linearGradient>
<linearGradient id="paint2_linear_11_895" x1="360.296" y1="139.247" x2="360.297" y2="96.183" gradientUnits="userSpaceOnUse">
<stop offset="0.2435" stop-color="#49687E"/>
<stop offset="1" stop-color="#DFF1FD"/>
</linearGradient>
<linearGradient id="paint3_linear_11_895" x1="326.932" y1="176.26" x2="378.718" y2="176.26" gradientUnits="userSpaceOnUse">
<stop offset="0.191" stop-color="#47A2E9"/>
<stop offset="0.6581" stop-color="#8ABCF7"/>
</linearGradient>
<linearGradient id="paint4_linear_11_895" x1="366.471" y1="274.406" x2="366.471" y2="182.06" gradientUnits="userSpaceOnUse">
<stop offset="0.2435" stop-color="#49687E"/>
<stop offset="1" stop-color="#DFF1FD"/>
</linearGradient>
<linearGradient id="paint5_linear_11_895" x1="394.04" y1="268.147" x2="394.041" y2="179.708" gradientUnits="userSpaceOnUse">
<stop offset="0.2435" stop-color="#49687E"/>
<stop offset="1" stop-color="#DFF1FD"/>
</linearGradient>
<linearGradient id="paint6_linear_11_895" x1="136.829" y1="254.443" x2="136.83" y2="164.533" gradientUnits="userSpaceOnUse">
<stop offset="0.2435" stop-color="#49687E"/>
<stop offset="1" stop-color="#DFF1FD"/>
</linearGradient>
<linearGradient id="paint7_linear_11_895" x1="68.4162" y1="203.273" x2="68.4169" y2="147.902" gradientUnits="userSpaceOnUse">
<stop offset="0.2435" stop-color="#49687E"/>
<stop offset="1" stop-color="#DFF1FD"/>
</linearGradient>
<linearGradient id="paint8_linear_11_895" x1="75.2393" y1="183.505" x2="75.2422" y2="104.097" gradientUnits="userSpaceOnUse">
<stop offset="0.2435" stop-color="#49687E"/>
<stop offset="1" stop-color="#DFF1FD"/>
</linearGradient>
<linearGradient id="paint9_linear_11_895" x1="71.2137" y1="169.199" x2="136.878" y2="169.199" gradientUnits="userSpaceOnUse">
<stop offset="0.191" stop-color="#47A2E9"/>
<stop offset="0.6581" stop-color="#8ABCF7"/>
</linearGradient>
<linearGradient id="paint10_linear_11_895" x1="121.4" y1="267.374" x2="121.397" y2="219.038" gradientUnits="userSpaceOnUse">
<stop offset="0.2435" stop-color="#49687E"/>
<stop offset="1" stop-color="#DFF1FD"/>
</linearGradient>
</defs>
</svg>
